<?xml version="1.0" standalone="no"?>
<!DOCTYPE svg PUBLIC "-//W3C//DTD SVG 20010904//EN"
 "http://www.w3.org/TR/2001/REC-SVG-20010904/DTD/svg10.dtd">
<svg version="1.0" xmlns="http://www.w3.org/2000/svg"
 width="1545.000000pt" height="837.000000pt" viewBox="0 0 1545.000000 837.000000"
 preserveAspectRatio="xMidYMid meet">

<g transform="translate(0.000000,837.000000) scale(0.100000,-0.100000)"
fill="#000000" stroke="none">
<path d="M9870 8150 c-189 -5 -223 -9 -279 -29 -201 -71 -331 -248 -371 -504
-11 -68 -31 -305 -110 -1262 -23 -269 -45 -539 -50 -600 -34 -401 -126 -1521
-155 -1885 -19 -239 -44 -538 -55 -665 -11 -126 -33 -401 -50 -610 -17 -209
-42 -515 -55 -680 -14 -165 -32 -388 -41 -495 -12 -154 -13 -215 -5 -287 25
-208 124 -371 278 -458 60 -34 170 -71 248 -84 33 -5 110 -19 170 -31 99 -19
487 -91 1085 -201 118 -22 350 -65 515 -95 174 -33 342 -58 400 -61 91 -5 112
-2 239 31 188 49 272 101 349 219 72 111 99 211 118 433 6 77 14 144 18 150 4
8 57 2 176 -18 302 -51 375 -59 470 -53 50 3 96 1 104 -4 15 -10 84 15 131 49
15 11 31 16 35 12 5 -4 5 -1 1 6 -5 8 24 44 79 100 160 163 177 232 151 599
-9 131 -23 333 -31 448 -8 116 -23 352 -35 525 -11 173 -34 515 -50 760 -37
546 -76 1130 -95 1430 -8 124 -24 358 -35 520 -11 162 -27 399 -35 525 -8 127
-22 327 -30 445 -8 118 -19 289 -25 380 -30 488 -52 739 -72 822 -24 102 -33
120 -48 98 -5 -8 -10 -10 -10 -5 0 6 -6 3 -13 -5 -13 -16 -97 -64 -101 -58 -2
2 -15 24 -30 51 -31 53 -41 59 -33 21 4 -22 2 -25 -17 -20 -11 3 -39 6 -62 6
-39 0 -41 2 -52 39 -29 94 -109 209 -192 274 -43 33 -33 34 59 2 66 -22 74
-23 89 -9 8 9 26 20 39 25 12 4 23 12 23 17 0 25 -138 60 -262 68 -86 5 -91 4
-74 -10 24 -19 25 -19 -88 -1 -61 10 -306 21 -756 35 -366 11 -764 24 -885 30
-342 16 -347 16 -575 10z m297 -27 c-20 -2 -52 -2 -70 0 -17 2 0 4 38 4 39 0
53 -2 32 -4z m256 -10 c-7 -2 -21 -2 -30 0 -10 3 -4 5 12 5 17 0 24 -2 18 -5z
m670 -20 c-13 -2 -35 -2 -50 0 -16 2 -5 4 22 4 28 0 40 -2 28 -4z m330 -10
c-35 -2 -91 -2 -125 0 -35 2 -7 3 62 3 69 0 97 -1 63 -3z m280 -10 c-35 -2
-91 -2 -125 0 -35 2 -7 3 62 3 69 0 97 -1 63 -3z m202 -3 c47 -7 45 -7 -32 -9
-50 0 -83 3 -83 9 0 11 43 12 115 0z m202 -26 c-3 -3 -12 -4 -19 -1 -8 3 -5 6
6 6 11 1 17 -2 13 -5z m-265 -245 c-4 -43 -15 -69 -24 -52 -9 17 4 104 16 100
7 -2 10 -21 8 -48z m158 36 c32 -17 43 -43 13 -29 -10 5 -39 8 -65 8 -54 -1
-62 9 -20 24 37 14 39 14 72 -3z m125 -5 l-40 -7 49 -2 49 -1 -6 -40 c-4 -35
-2 -40 14 -40 10 0 19 7 19 15 0 8 5 15 10 15 7 0 7 -6 0 -20 -9 -17 -21 -20
-75 -20 -35 0 -65 5 -67 10 -2 6 -2 31 0 55 l4 45 42 -1 41 -2 -40 -7z m-325
-40 c0 -29 -4 -40 -15 -40 -17 0 -18 4 -9 49 9 44 24 39 24 -9z m-40 -10 c0
-20 -5 -30 -15 -30 -16 0 -19 17 -9 44 10 26 24 18 24 -14z m224 24 c29 -11
17 -21 -24 -21 -39 0 -53 10 -27 20 18 8 33 8 51 1z m-264 -34 c0 -11 -7 -20
-15 -20 -15 0 -21 21 -8 33 12 13 23 7 23 -13z m250 -15 c-12 -15 -30 -12 -30
6 0 5 10 9 21 9 18 0 19 -2 9 -15z m-2372 -260 c4 -4 -2 -13 -12 -21 -16 -11
-17 -17 -8 -26 14 -14 16 -38 3 -38 -5 0 -24 -14 -42 -32 l-32 -32 22 -38 c26
-45 26 -48 1 -48 -13 0 -29 17 -50 53 -37 65 -38 77 -1 77 17 0 32 4 35 9 7
10 -16 21 -45 21 -12 0 -16 5 -13 15 4 9 19 15 36 15 17 0 27 4 23 10 -3 6
-17 10 -31 10 -23 0 -32 18 -16 34 8 9 120 1 130 -9z m209 -10 c26 -19 37 -59
22 -88 -6 -12 -30 -41 -52 -64 -39 -41 -40 -43 -17 -43 41 0 70 -11 70 -26 0
-11 -18 -14 -75 -14 -65 0 -75 2 -75 18 0 10 23 40 51 67 60 59 72 79 64 105
-8 26 -33 25 -61 -1 -31 -29 -48 -16 -29 21 22 42 63 52 102 25z m197 -1 c9
-3 16 -12 16 -20 0 -10 -14 -14 -50 -14 -49 0 -50 -1 -50 -30 0 -22 4 -28 15
-24 52 20 95 -40 74 -103 -6 -18 -19 -38 -29 -43 -45 -24 -110 0 -110 42 0 24
21 23 43 -2 21 -25 29 -25 52 0 15 17 17 26 9 48 -9 24 -14 27 -53 24 l-43 -3
7 58 c4 32 9 61 12 66 5 8 85 10 107 1z m192 -111 c-9 -127 -12 -143 -33 -143
-14 0 -15 13 -9 101 7 98 7 100 -13 90 -26 -14 -31 -14 -31 3 0 18 49 55 74
56 17 0 18 -7 12 -107z m202 80 c-2 -14 -15 -19 -50 -21 -40 -3 -46 -6 -51
-28 -4 -21 -1 -24 27 -24 37 0 49 -7 65 -38 43 -81 -73 -166 -128 -96 -12 15
-21 31 -21 35 0 16 30 9 51 -12 18 -18 23 -19 42 -6 49 32 27 93 -30 82 -47
-8 -52 -2 -41 52 15 76 12 73 78 73 53 0 61 -2 58 -17z m1690 3 c65 -34 104
-108 72 -136 -25 -22 -34 -97 -13 -108 14 -9 14 -13 -6 -41 -25 -35 -29 -36
-66 -19 -15 7 -24 17 -20 25 3 10 -1 13 -14 8 -11 -3 -22 -2 -25 3 -3 5 16 16
41 24 61 20 69 48 11 39 -5 0 -8 5 -8 13 0 8 -10 18 -21 21 -18 6 -20 12 -15
45 4 26 2 40 -7 43 -22 8 -37 -5 -37 -31 0 -14 -7 -33 -16 -43 -12 -13 -13
-22 -5 -38 6 -11 11 -30 11 -42 0 -19 -2 -20 -17 -8 -15 13 -15 10 -10 -31 4
-25 4 -50 -1 -56 -12 -18 -50 2 -72 38 -30 49 -24 56 15 18 19 -18 36 -32 38
-29 2 2 2 20 0 40 -4 32 -10 38 -44 49 -21 7 -39 17 -39 23 0 5 8 6 18 2 41
-18 59 -17 64 3 6 21 -14 32 -59 32 -51 0 -3 109 66 149 42 24 119 28 159 7z
m-1562 -103 c-9 -129 -13 -145 -34 -140 -10 2 -16 7 -16 13 8 53 14 184 9 184
-4 0 -15 -5 -26 -10 -16 -9 -19 -7 -19 9 0 22 42 50 74 51 17 0 18 -7 12 -107z
m1016 41 c14 -9 9 -61 -7 -74 -10 -8 -15 -26 -13 -49 3 -34 1 -36 -26 -36 -16
-1 -31 -6 -34 -13 -5 -17 -29 -15 -36 3 -3 8 -17 15 -31 15 -18 0 -25 5 -25
19 0 11 4 22 9 25 4 3 11 25 15 48 11 65 31 81 90 73 28 -3 53 -8 58 -11z
m-1462 -139 c0 -26 -29 -87 -38 -81 -14 8 9 96 25 96 7 0 13 -7 13 -15z m2627
-212 c-3 -10 -5 -2 -5 17 0 19 2 27 5 18 2 -10 2 -26 0 -35z m-3227 -17 c0 -3
-4 -8 -10 -11 -5 -3 -10 -1 -10 4 0 6 5 11 10 11 6 0 10 -2 10 -4z m277 -48
c-3 -8 -6 -5 -6 6 -1 11 2 17 5 13 3 -3 4 -12 1 -19z m-267 -4 c0 -2 -12 -4
-26 -4 -14 0 -23 4 -20 9 6 8 46 4 46 -5z m120 -9 c0 -14 -4 -25 -10 -25 -5 0
-7 7 -4 15 4 9 0 15 -7 15 -11 0 -11 3 1 10 20 13 20 13 20 -15z m106 -23
c-12 -13 -18 -13 -28 -4 -9 9 -9 15 1 25 10 10 11 8 5 -7 -5 -14 -3 -17 7 -14
8 3 15 10 15 16 3 30 7 36 11 18 3 -10 -2 -26 -11 -34z m371 26 c-3 -8 -6 -5
-6 6 -1 11 2 17 5 13 3 -3 4 -12 1 -19z m2630 -25 c-3 -10 -5 -2 -5 17 0 19 2
27 5 18 2 -10 2 -26 0 -35z m-2757 23 c0 -3 -4 -8 -10 -11 -5 -3 -10 -1 -10 4
0 6 5 11 10 11 6 0 10 -2 10 -4z m217 -18 c-3 -8 -6 -5 -6 6 -1 11 2 17 5 13
3 -3 4 -12 1 -19z m291 0 c8 -8 15 -8 27 2 24 20 28 6 5 -15 -20 -18 -21 -18
-43 3 -12 12 -17 22 -11 22 5 0 15 -5 22 -12z m-678 -14 c0 -2 -9 -4 -20 -4
-11 0 -20 4 -20 9 0 5 9 7 20 4 11 -3 20 -7 20 -9z m517 -6 c-3 -8 -6 -5 -6 6
-1 11 2 17 5 13 3 -3 4 -12 1 -19z m43 12 c0 -5 -8 -10 -17 -10 -15 0 -16 2
-3 10 19 12 20 12 20 0z m2377 -147 c-3 -10 -5 -4 -5 12 0 17 2 24 5 18 2 -7
2 -21 0 -30z m-3268 -20 c0 -10 -4 -36 -8 -58 l-9 -40 -1 48 c0 26 -6 47 -12
47 -5 0 -7 5 -4 10 10 17 35 11 34 -7z m52 -48 l-9 -50 -1 42 c0 23 -7 44 -13
46 -10 4 -9 8 2 16 23 16 30 0 21 -54z m63 8 c-9 -62 -14 -67 -14 -15 0 23 -5
42 -11 42 -5 0 -7 5 -4 10 3 6 13 10 21 10 12 0 14 -9 8 -47z m84 21 c2 -11
-6 -28 -17 -39 -20 -17 -20 -19 -3 -31 15 -12 14 -13 -10 -14 -35 0 -35 16 -1
52 20 21 24 31 15 40 -8 8 -15 8 -27 -2 -8 -7 -15 -8 -15 -3 0 31 54 28 58 -3z
m92 -21 c0 -21 -5 -45 -10 -53 -7 -11 -10 -4 -10 28 0 23 -5 42 -11 42 -5 0
-7 5 -4 10 15 25 35 9 35 -27z m77 20 c4 -9 -1 -29 -10 -45 -15 -26 -15 -28 1
-38 14 -7 11 -9 -15 -10 -36 0 -42 10 -17 30 22 19 36 49 29 61 -5 7 -11 6
-21 -2 -8 -6 -14 -7 -14 -2 0 26 37 31 47 6z m62 -25 c0 -18 -4 -42 -9 -53 -7
-15 -9 -10 -9 23 -1 23 -6 42 -12 42 -5 0 -7 5 -4 10 14 23 35 10 34 -22z m64
25 c-29 -5 -29 -19 -2 -33 30 -17 23 -65 -10 -65 -13 0 -26 5 -28 11 -2 7 6
10 22 7 19 -4 25 -1 25 12 0 9 -9 19 -20 22 -13 3 -20 14 -20 29 0 20 5 24 28
23 23 -2 24 -2 5 -6z m113 -19 c-3 -9 -6 -31 -6 -50 0 -19 -3 -34 -8 -34 -4 0
-6 18 -4 40 3 26 0 40 -8 40 -6 0 -8 5 -5 10 10 17 38 12 31 -6z m81 -36 c2
-40 -1 -48 -19 -54 -29 -9 -56 19 -39 40 7 8 10 19 7 25 -11 18 6 42 28 39 18
-3 21 -10 23 -50z m87 19 c14 -38 -7 -79 -37 -75 -17 2 -23 10 -25 39 -2 24 3
42 14 53 21 22 37 16 48 -17z m81 -26 c0 -30 -6 -47 -17 -54 -26 -17 -48 8
-42 46 9 53 13 59 36 55 20 -3 23 -9 23 -47z m102 5 c-4 -9 -11 -16 -17 -16
-17 0 -24 31 -9 41 18 11 34 -5 26 -25z m2310 2 c-3 -7 -5 -2 -5 12 0 14 2 19
5 13 2 -7 2 -19 0 -25z m-2239 5 c-6 -37 -38 -38 -38 -2 0 12 7 19 20 19 14 0
20 -6 18 -17z m138 -13 c0 -10 -3 -17 -7 -14 -4 2 -9 -2 -12 -8 -3 -9 -7 -7
-12 5 -4 9 -5 24 -1 32 7 20 32 9 32 -15z m-68 8 c-6 -29 -38 -31 -38 -2 0 8
9 14 20 14 11 0 19 -6 18 -12z m2179 -90 c-3 -7 -5 -2 -5 12 0 14 2 19 5 13 2
-7 2 -19 0 -25z m-2923 -94 c24 -9 26 -31 12 -193 -15 -181 -18 -185 -106
-177 -30 3 -90 8 -133 12 -59 5 -80 11 -87 24 -10 19 11 318 25 339 6 11 35
13 141 7 74 -3 140 -9 148 -12z m2933 -26 c-3 -8 -6 -5 -6 6 -1 11 2 17 5 13
3 -3 4 -12 1 -19z m-2239 -14 c22 -3 36 -12 41 -27 12 -33 -16 -328 -32 -345
-18 -18 -284 1 -305 21 -11 12 -11 39 1 176 9 92 20 168 27 176 10 12 33 14
124 10 61 -4 126 -8 144 -11z m755 -50 c9 -3 21 -13 26 -23 14 -25 -16 -332
-34 -350 -11 -11 -40 -12 -149 -6 -190 10 -181 -2 -163 202 9 102 19 168 27
178 12 14 31 16 144 10 72 -4 139 -9 149 -11z m676 -41 c127 -9 125 -4 106
-204 -16 -172 -19 -186 -45 -194 -19 -6 -261 11 -292 21 -10 3 -20 15 -23 27
-9 37 21 325 35 342 14 17 69 19 219 8z m-2550 -361 c14 -11 13 -11 -6 -2 -13
6 -23 18 -22 28 0 14 2 14 6 2 4 -8 13 -21 22 -28z m45 6 c-5 -8 -2 -9 9 -5
10 3 17 2 17 -3 0 -6 -4 -10 -9 -10 -5 0 -17 -3 -26 -7 -15 -5 -16 -3 -6 15 7
12 14 22 17 22 3 0 2 -5 -2 -12z m206 -21 c0 -5 -4 -5 -10 -2 -5 3 -10 14 -10
23 0 15 2 15 10 2 5 -8 10 -19 10 -23z m41 0 c-8 -8 -11 -7 -11 4 0 9 3 19 7
23 4 4 9 2 11 -4 3 -7 -1 -17 -7 -23z m53 5 c2 -4 -4 -8 -14 -8 -10 0 -16 4
-14 8 3 4 9 8 14 8 5 0 11 -4 14 -8z m66 -12 c0 -5 -2 -10 -4 -10 -3 0 -8 5
-11 10 -3 6 -1 10 4 10 6 0 11 -4 11 -10z m33 -10 c-19 -22 -26 -21 -17 4 3 9
12 16 20 16 11 0 10 -4 -3 -20z m367 5 c13 -16 4 -59 -11 -49 -6 4 -6 11 1 19
13 16 4 39 -11 30 -5 -4 -9 -1 -9 4 0 16 15 13 30 -4z m-540 -15 c0 -5 -4 -10
-10 -10 -5 0 -10 5 -10 10 0 6 5 10 10 10 6 0 10 -4 10 -10z m71 -18 c-7 -2
-18 1 -23 6 -8 8 -4 9 13 5 13 -4 18 -8 10 -11z m442 -12 c-7 -28 -13 -25 -13
6 0 14 4 23 9 20 5 -3 7 -15 4 -26z m-286 -2 c-3 -8 -6 -5 -6 6 -1 11 2 17 5
13 3 -3 4 -12 1 -19z m347 -2 c-3 -8 2 -17 13 -20 15 -4 15 -5 -2 -3 -13 1
-21 11 -23 26 -2 14 0 21 7 17 5 -4 8 -13 5 -20z m132 -22 c8 3 14 1 14 -4 0
-6 -9 -10 -20 -10 -16 0 -20 6 -19 33 2 31 2 31 6 4 3 -20 9 -27 19 -23z m70
22 c2 -12 1 -13 -3 -1 -6 20 -23 19 -23 -2 0 -9 -3 -14 -6 -10 -4 3 -4 13 0
22 8 21 30 14 32 -9z m86 -16 c-6 -41 -12 -38 -12 6 0 19 4 33 8 30 5 -3 7
-19 4 -36z m-37 -20 c-3 -6 -12 -10 -18 -10 -7 0 -6 4 3 11 11 8 12 12 3 16
-7 2 -13 12 -13 21 0 13 4 11 16 -6 8 -12 12 -27 9 -32z m-167 0 c-2 -7 -11
-5 -23 5 -16 12 -17 14 -2 9 10 -4 17 -1 18 7 0 11 2 11 6 2 2 -7 3 -18 1 -23z
m617 20 c-3 -6 1 -13 10 -17 10 -3 21 0 26 8 6 10 8 3 8 -21 -1 -19 -3 -27 -6
-17 -2 9 -13 17 -23 17 -10 0 -21 -8 -23 -17 -3 -10 -5 -4 -6 13 0 17 2 34 6
37 10 10 15 8 8 -3z m155 -22 c0 -18 -2 -20 -9 -8 -6 8 -7 18 -5 22 9 14 14 9
14 -14z m-660 6 c0 -8 -19 -13 -24 -6 -3 5 1 9 9 9 8 0 15 -2 15 -3z m572 -36
c-6 -6 -7 0 -4 19 5 21 7 23 10 9 2 -10 0 -22 -6 -28z m43 32 c-18 -7 -19 -8
-2 -15 25 -10 21 -35 -5 -34 -21 0 -22 1 -3 8 18 7 18 8 1 18 -21 12 -13 33
12 32 14 0 13 -2 -3 -9z m112 -16 c7 -19 -20 -49 -36 -40 -12 8 -15 39 -4 49
12 12 33 7 40 -9z m26 -4 c-3 -11 -7 -20 -9 -20 -2 0 -4 9 -4 20 0 11 4 20 9
20 5 0 7 -9 4 -20z m52 -39 c-8 -17 -17 -31 -19 -31 -7 0 7 44 18 56 18 20 19
8 1 -25z m550 -6 c0 -33 -3 -40 -20 -40 -15 0 -21 8 -23 28 -3 25 -1 28 17 22
16 -5 21 -2 21 10 0 11 -5 15 -15 11 -8 -3 -15 -1 -15 5 0 6 8 9 18 7 13 -2
17 -13 17 -43z m56 -11 c-5 -21 -9 -30 -10 -19 -1 24 10 67 15 62 3 -2 0 -22
-5 -43z m26 -16 c-2 -13 -4 -5 -4 17 -1 22 1 32 4 23 2 -10 2 -28 0 -40z
m-2267 27 c270 -22 1381 -109 1920 -150 436 -33 468 -37 518 -60 67 -32 112
-97 112 -162 0 -23 -20 -276 -45 -560 -25 -285 -52 -597 -60 -693 -17 -193
-71 -815 -110 -1265 -14 -159 -34 -392 -45 -518 -11 -125 -29 -329 -40 -455
-11 -125 -24 -285 -30 -357 -16 -202 -14 -194 -60 -192 -45 1 -76 -21 -84 -62
-5 -23 -31 -307 -56 -610 -5 -62 -11 -115 -14 -118 -2 -2 -45 3 -96 12 -75 14
-93 21 -100 39 -5 11 -9 15 -9 8 -1 -10 -16 -12 -68 -7 -36 3 -72 10 -79 16
-7 6 -17 8 -22 5 -5 -3 -47 1 -93 10 -46 8 -97 17 -114 19 -48 6 -159 27 -175
32 -8 3 -31 6 -50 8 -19 2 -48 6 -65 10 -16 4 -39 9 -50 10 -11 2 -22 4 -25 6
-10 4 -25 7 -53 8 -20 1 -31 7 -34 21 -5 19 -6 20 -20 3 -11 -14 -15 -15 -20
-4 -4 11 -7 11 -13 0 -7 -10 -11 -10 -24 0 -21 17 -21 7 0 -73 15 -58 15 -135
-2 -201 -10 -39 -72 -34 -87 8 -8 21 -26 22 -33 2 -8 -20 -51 -19 -63 2 -8 14
-12 15 -25 4 -14 -12 -20 -11 -38 5 -15 14 -22 16 -25 6 -10 -28 -22 2 -16 43
6 47 4 49 -67 57 -23 3 -25 -1 -28 -40 -3 -39 -5 -42 -33 -42 -22 0 -29 5 -29
20 0 23 -18 26 -34 6 -8 -11 -20 -13 -46 -8 l-35 8 0 89 c0 76 4 99 26 146
l27 57 -52 7 c-28 5 -54 7 -59 6 -4 0 -12 10 -17 24 -5 14 -15 25 -22 25 -9 0
-8 -3 2 -10 12 -8 13 -12 2 -19 -12 -7 -34 -5 -127 14 -11 2 -27 4 -35 5 -12
0 -11 3 3 11 9 6 15 14 12 20 -4 5 4 9 17 9 13 0 30 5 38 10 11 7 6 8 -17 4
l-31 -6 8 36 c4 20 5 36 1 36 -8 0 -35 89 -31 104 1 5 -4 13 -12 17 -11 7 -10
11 2 20 11 8 12 12 2 16 -6 2 -10 9 -6 14 3 5 1 9 -5 9 -8 0 -24 45 -25 74 -1
5 -8 10 -18 12 -30 4 -118 68 -116 84 1 8 -1 21 -6 29 -6 9 -4 18 6 25 32 23
46 78 39 152 -9 86 -23 110 -78 123 -40 10 -45 9 -72 -15 -19 -17 -32 -40 -36
-65 -4 -21 -11 -39 -17 -39 -11 0 -1 -60 13 -75 5 -5 9 -18 9 -30 -1 -21 -24
-58 -32 -50 -2 3 -11 -6 -18 -20 -10 -18 -30 -30 -74 -43 l-61 -18 0 -172 c0
-146 -2 -172 -15 -173 -15 -1 32 -16 82 -26 15 -3 29 -10 31 -17 2 -6 -1 -69
-7 -141 l-11 -130 -38 3 c-21 2 -50 7 -64 13 -23 8 -25 14 -20 45 8 47 -3 73
-52 124 -45 47 -52 46 -121 -16 l-38 -35 -21 30 c-29 40 -57 109 -65 158 l-7
41 41 -8 c28 -5 43 -4 45 4 4 12 27 280 46 536 11 141 10 158 -5 188 -11 22
-26 35 -47 39 -16 3 -31 8 -33 12 -2 3 2 76 10 161 7 85 47 569 89 1075 41
506 84 1024 95 1150 11 127 40 478 65 780 59 732 51 667 86 714 36 51 91 80
149 80 25 0 128 -6 230 -14z m2217 -32 c-3 -10 -5 -2 -5 17 0 19 2 27 5 18 2
-10 2 -26 0 -35z m94 -16 c-8 -8 -14 -8 -23 2 -11 10 -10 11 5 6 9 -4 17 -3
17 3 0 5 -7 13 -16 16 -8 3 -12 11 -9 17 5 6 13 2 22 -11 11 -16 12 -25 4 -33z
m-2447 -4051 c29 -12 33 -18 29 -40 -5 -24 -8 -26 -40 -20 -39 7 -60 -10 -41
-33 12 -15 38 -17 38 -3 0 6 5 10 10 10 16 0 11 -37 -6 -44 -8 -3 -13 -10 -10
-15 9 -13 -45 -20 -65 -8 -16 10 -16 14 2 75 16 57 34 92 46 92 2 0 19 -6 37
-14z m-53 -323 c-14 -10 -19 -5 -38 30 -34 65 -27 77 16 27 34 -40 37 -46 22
-57z m32 -278 c1 -5 -6 -11 -15 -13 -11 -2 -18 3 -18 13 0 17 30 18 33 0z
m-359 -227 c28 -32 36 -51 36 -79 0 -49 -13 -55 -56 -30 -19 12 -41 21 -47 21
-7 0 -25 10 -41 23 -20 17 -27 29 -22 43 6 20 62 62 83 63 6 1 28 -18 47 -41z
m526 -41 l55 -12 1 -60 c1 -33 -1 -46 -3 -28 -4 30 -7 32 -67 42 -86 15 -104
14 -109 -6 -3 -10 -5 0 -6 23 0 22 2 44 6 47 9 10 59 7 123 -6z m-109 -147
c10 0 19 -4 19 -9 0 -4 -11 -6 -25 -3 -20 3 -25 10 -24 31 2 23 2 24 6 4 3
-15 12 -23 24 -23z m156 -32 c-3 -7 -5 -2 -5 12 0 14 2 19 5 13 2 -7 2 -19 0
-25z m521 -37 c14 -8 7 -61 -8 -61 -26 0 -40 15 -40 41 0 30 20 38 48 20z
m603 -116 l-9 -60 -1 50 c0 28 3 68 7 90 6 37 7 38 10 10 1 -16 -2 -57 -7 -90z
m169 28 c-1 -27 -40 -50 -80 -48 -19 1 -43 -2 -52 -7 -13 -6 -18 -5 -18 4 0
21 32 35 74 34 30 -2 40 2 44 16 6 23 32 23 32 1z m520 -50 c16 -21 20 -35 15
-58 -3 -16 -6 -40 -7 -53 0 -18 -4 -22 -17 -16 -36 16 -79 16 -105 -1 -23 -15
-26 -16 -26 -2 0 9 10 22 23 28 12 6 23 13 25 14 1 1 -2 14 -8 29 -10 28 0 62
24 78 23 16 55 7 76 -19z m-543 -50 c-3 -10 -5 -4 -5 12 0 17 2 24 5 18 2 -7
2 -21 0 -30z m-50 5 c-3 -8 -6 -5 -6 6 -1 11 2 17 5 13 3 -3 4 -12 1 -19z"/>
<path d="M11428 7383 c-9 -10 -19 -37 -23 -60 -4 -24 -11 -45 -16 -49 -22 -13
7 -24 66 -24 l65 0 -13 28 c-6 15 -17 31 -24 35 -7 4 -13 26 -13 47 0 44 -16
52 -42 23z"/>
<path d="M11487 7384 c-13 -13 -7 -55 8 -60 21 -9 47 15 43 40 -3 21 -37 34
-51 20z"/>
<path d="M10112 6726 c1 -10 8 -17 13 -17 15 1 12 24 -3 29 -9 3 -13 -2 -10
-12z"/>
<path d="M10104 6679 c-10 -17 13 -36 27 -22 12 12 4 33 -11 33 -5 0 -12 -5
-16 -11z"/>
<path d="M10184 6705 c-3 -14 -3 -32 0 -41 10 -27 31 -9 34 29 2 28 -1 37 -12
37 -9 0 -18 -11 -22 -25z"/>
<path d="M10277 6723 c-12 -11 -8 -23 8 -23 8 0 15 7 15 15 0 16 -12 20 -23 8z"/>
<path d="M10272 6664 c4 -21 22 -23 26 -1 2 10 -3 17 -13 17 -10 0 -15 -6 -13
-16z"/>
<path d="M9580 6444 c-16 -18 -30 -160 -19 -190 8 -23 49 -34 125 -34 49 0 63
14 69 67 l5 38 -9 -34 c-15 -57 -30 -65 -108 -55 -52 7 -69 13 -71 27 -3 14 4
17 41 17 53 0 77 22 77 69 0 27 -5 34 -35 47 -19 7 -44 14 -55 14 -15 0 -20 5
-18 18 2 11 16 19 43 23 l40 6 -36 2 c-22 0 -42 -5 -49 -15z m88 -66 c7 -7 12
-24 12 -40 0 -33 -24 -48 -74 -48 l-36 0 0 50 0 50 43 0 c24 0 48 -5 55 -12z"/>
<path d="M9726 6441 c-4 -5 -2 -12 3 -15 5 -4 12 -2 15 3 4 5 2 12 -3 15 -5 4
-12 2 -15 -3z"/>
<path d="M10321 6396 c-16 -19 -28 -95 -13 -81 6 6 12 24 14 40 l3 30 67 0
c36 0 70 -3 73 -7 4 -4 4 -42 -1 -85 l-9 -78 -35 -6 -35 -6 37 -2 c20 0 40 3
43 9 3 5 9 48 12 95 7 96 12 90 -83 100 -47 4 -64 2 -73 -9z"/>
<path d="M10387 6363 c-4 -3 -7 -21 -7 -39 0 -29 13 -44 41 -44 17 0 9 18 -9
22 -15 4 -18 12 -14 37 4 31 1 37 -11 24z"/>
<path d="M10290 6281 c-34 -65 27 -134 73 -83 20 22 22 73 5 90 -19 19 -66 15
-78 -7z m60 -10 c0 -18 -12 -41 -22 -41 -6 0 -5 6 2 15 10 12 9 15 -4 15 -10
0 -14 5 -11 10 8 13 35 13 35 1z"/>
<path d="M11137 6325 c53 -23 68 -77 38 -135 -11 -21 -26 -31 -57 -38 -42 -10
-42 -10 -10 -11 80 -2 126 116 67 174 -13 14 -34 25 -47 25 -20 -1 -19 -3 9
-15z"/>
<path d="M11111 6269 c0 -22 5 -42 14 -49 16 -13 21 0 6 16 -5 5 -11 23 -14
39 -4 28 -4 28 -6 -6z"/>
<path d="M11020 6250 c0 -5 5 -10 10 -10 6 0 10 5 10 10 0 6 -4 10 -10 10 -5
0 -10 -4 -10 -10z"/>
<path d="M11810 6230 c-9 -6 -10 -10 -3 -10 6 0 15 5 18 10 8 12 4 12 -15 0z"/>
<path d="M11120 5879 c0 -24 23 -21 28 4 2 10 -3 17 -12 17 -10 0 -16 -9 -16
-21z"/>
<path d="M11752 5828 c6 -18 28 -21 28 -4 0 9 -7 16 -16 16 -9 0 -14 -5 -12
-12z"/>
<path d="M10225 5584 c8 -20 15 -46 15 -58 1 -14 5 -8 14 17 8 20 19 44 26 52
9 11 9 15 1 15 -6 0 -14 -7 -17 -15 -8 -21 -21 -19 -29 5 -3 11 -11 20 -16 20
-5 0 -2 -16 6 -36z"/>
<path d="M10304 5584 c-23 -34 -9 -78 26 -82 28 -5 50 20 50 58 0 52 -48 68
-76 24z m54 4 c28 -28 -5 -91 -34 -67 -24 20 -12 79 16 79 3 0 11 -5 18 -12z"/>
<path d="M10400 5551 c0 -42 3 -51 21 -56 13 -4 27 -2 35 6 16 17 32 109 16
94 -6 -5 -12 -26 -14 -45 -2 -27 -7 -35 -23 -35 -17 0 -20 6 -19 43 0 23 -3
42 -8 42 -4 0 -8 -22 -8 -49z"/>
<path d="M10507 5593 c-12 -20 -19 -103 -8 -103 6 0 11 9 11 20 0 11 5 20 10
20 6 0 10 -4 10 -8 0 -5 6 -16 13 -25 10 -15 12 -9 14 38 1 30 -2 55 -7 55 -4
0 -15 3 -23 6 -8 3 -17 2 -20 -3z m38 -33 c0 -8 -8 -16 -17 -18 -13 -2 -18 3
-18 18 0 15 5 20 18 18 9 -2 17 -10 17 -18z"/>
<path d="M10637 5578 c-27 -21 -31 -61 -8 -89 16 -19 23 -22 37 -13 10 6 20
17 23 25 4 12 2 12 -12 0 -25 -20 -47 -6 -47 29 0 35 22 49 45 30 22 -18 29
-6 10 14 -20 19 -26 20 -48 4z"/>
<path d="M10726 5529 c-22 -51 -26 -84 -5 -46 12 21 38 22 45 2 4 -8 10 -15
14 -15 8 0 -14 97 -24 108 -3 3 -17 -19 -30 -49z m34 -4 c0 -8 -4 -15 -10 -15
-5 0 -10 7 -10 15 0 8 5 15 10 15 6 0 10 -7 10 -15z"/>
<path d="M10808 5523 c-3 -27 -1 -52 4 -57 4 -6 8 -1 8 12 0 27 20 29 27 2 3
-11 10 -20 15 -20 5 0 7 9 3 19 -3 11 0 29 6 40 16 25 -3 51 -36 51 -20 0 -24
-6 -27 -47z m52 11 c0 -8 -9 -14 -20 -14 -19 0 -27 19 -14 33 10 9 34 -4 34
-19z"/>
<path d="M10896 5538 c-3 -13 -6 -38 -6 -55 0 -30 3 -33 30 -33 32 0 50 22 50
62 0 48 -62 69 -74 26z m54 -3 c18 -21 4 -65 -20 -65 -17 0 -20 7 -20 40 0 43
17 53 40 25z"/>
<path d="M11007 5549 c-25 -14 -21 -38 8 -51 34 -15 34 -42 0 -35 -16 3 -24 0
-22 -7 5 -16 36 -20 52 -6 22 18 18 39 -10 52 -26 12 -34 38 -12 38 7 0 18 -5
25 -12 9 -9 12 -9 12 0 0 18 -33 32 -53 21z"/>
<path d="M9317 5073 c3 -21 11 -44 18 -52 11 -11 17 -7 34 27 12 23 21 46 21
52 0 18 -18 11 -25 -10 -3 -11 -11 -20 -16 -20 -5 0 -9 9 -9 20 0 11 -6 20
-14 20 -11 0 -13 -9 -9 -37z"/>
<path d="M9407 5103 c-10 -18 -18 -93 -9 -93 14 0 35 81 24 92 -5 5 -12 6 -15
1z"/>
<path d="M9443 5085 c-3 -9 2 -24 11 -34 18 -20 12 -33 -11 -24 -11 4 -14 2
-11 -8 3 -10 21 -14 59 -14 30 0 59 -3 65 -7 17 -11 20 -3 16 46 -5 58 -30 63
-56 9 l-17 -36 -15 28 c-17 34 -17 35 1 35 8 0 15 5 15 10 0 16 -50 11 -57 -5z
m107 -45 c0 -5 -5 -10 -11 -10 -5 0 -7 5 -4 10 3 6 8 10 11 10 2 0 4 -4 4 -10z"/>
<path d="M9778 4945 c2 -19 6 -35 8 -35 2 0 4 16 4 35 0 19 -4 35 -8 35 -4 0
-6 -16 -4 -35z"/>
<path d="M9825 4941 c0 -22 3 -37 7 -35 5 3 8 21 8 40 0 19 -3 34 -8 34 -4 0
-7 -18 -7 -39z"/>
<path d="M9869 4975 c-3 -2 -3 -21 0 -42 l4 -38 8 35 c7 32 0 58 -12 45z"/>
<path d="M9923 4963 c22 -6 22 -16 -3 -38 -26 -24 -25 -35 3 -34 12 0 16 3 10
6 -9 3 -9 10 3 28 18 27 11 46 -14 44 -15 -1 -15 -2 1 -6z"/>
<path d="M9997 4948 c4 -7 7 -24 6 -38 l-2 -25 8 25 c14 38 12 50 -5 50 -10 0
-12 -5 -7 -12z"/>
<path d="M10040 4949 c0 -5 4 -8 9 -4 21 13 21 -18 0 -41 l-22 -24 24 1 c13 0
18 3 11 6 -10 4 -10 9 4 24 9 10 14 25 11 34 -7 17 -37 21 -37 4z"/>
<path d="M11260 4952 c0 -6 6 -13 13 -15 10 -4 10 -6 0 -6 -19 -1 -16 -19 5
-24 14 -4 14 -6 -5 -12 -21 -7 -22 -9 -7 -36 8 -16 19 -29 25 -29 6 0 6 7 -1
20 -9 17 -7 24 11 39 23 19 34 61 15 61 -6 0 -21 3 -33 6 -13 4 -23 2 -23 -4z"/>
<path d="M10107 4918 c8 -46 13 -48 13 -5 0 21 -4 37 -10 37 -5 0 -7 -14 -3
-32z"/>
<path d="M10146 4934 c-9 -22 -8 -24 9 -24 8 0 15 -7 15 -16 0 -10 -6 -14 -15
-10 -8 3 -15 1 -15 -4 0 -16 37 -11 44 5 3 8 -2 22 -11 31 -14 13 -14 17 -2
25 12 7 11 9 -2 9 -9 0 -20 -7 -23 -16z"/>
<path d="M11363 4943 c-7 -2 -13 -12 -13 -20 0 -12 3 -13 15 -3 14 12 35 6 35
-10 0 -5 -13 -25 -30 -43 -16 -19 -30 -37 -30 -41 0 -3 17 -5 38 -5 23 1 28 3
15 6 -29 6 -29 8 2 45 29 35 30 41 9 62 -16 17 -21 18 -41 9z"/>
<path d="M10238 4933 c-2 -5 -1 -24 2 -43 l6 -35 5 38 c5 34 -4 59 -13 40z"/>
<path d="M10285 4928 c-3 -8 -7 -28 -8 -44 -2 -23 2 -29 18 -29 17 0 20 7 20
39 0 39 -20 61 -30 34z m20 -7 c3 -5 1 -12 -5 -16 -5 -3 -10 1 -10 9 0 18 6
21 15 7z m0 -41 c3 -5 -1 -10 -9 -10 -9 0 -16 5 -16 10 0 6 4 10 9 10 6 0 13
-4 16 -10z"/>
<path d="M11446 4924 c-13 -34 -7 -54 16 -51 17 1 24 -4 26 -22 3 -22 1 -23
-28 -17 -28 5 -31 4 -20 -9 16 -19 44 -19 60 0 17 20 9 48 -18 60 -31 14 -28
35 6 35 21 0 24 2 12 10 -23 15 -47 12 -54 -6z"/>
<path d="M10340 4916 c-18 -23 -8 -61 16 -64 16 -2 23 3 26 20 9 51 -15 76
-42 44z m30 -26 c0 -16 -4 -30 -9 -30 -12 0 -19 21 -13 43 7 28 22 20 22 -13z"/>
<path d="M10413 4923 c-8 -3 -13 -22 -13 -45 0 -35 2 -39 22 -36 18 2 23 10
24 35 2 34 -12 53 -33 46z m17 -23 c0 -5 -2 -10 -4 -10 -3 0 -8 5 -11 10 -3 6
-1 10 4 10 6 0 11 -4 11 -10z m0 -35 c0 -8 -4 -15 -10 -15 -5 0 -10 7 -10 15
0 8 5 15 10 15 6 0 10 -7 10 -15z"/>
<path d="M11578 4919 c-22 -12 -24 -31 -3 -23 12 5 13 -3 8 -45 -4 -32 -2 -51
4 -51 12 0 24 111 14 122 -3 4 -14 2 -23 -3z"/>
<path d="M10495 4910 c-3 -5 1 -10 9 -10 20 0 20 -14 1 -30 -22 -18 -18 -40 8
-40 16 0 18 3 8 9 -11 7 -11 13 2 32 12 17 14 26 5 36 -13 16 -25 17 -33 3z"/>
<path d="M11645 4908 c-13 -40 -10 -53 15 -53 15 0 26 -6 28 -18 4 -22 -24
-33 -43 -17 -12 10 -15 10 -15 -3 0 -31 54 -36 70 -7 13 24 -3 60 -25 60 -8 0
-15 7 -15 15 0 9 10 15 26 15 14 0 23 4 19 10 -9 14 -55 12 -60 -2z"/>
<path d="M10557 4904 c-4 -4 -7 -23 -7 -41 0 -30 3 -34 23 -31 18 2 22 9 22
38 0 33 -20 51 -38 34z m31 -40 c-5 -28 -28 -29 -28 -1 0 13 3 27 7 31 10 10
25 -10 21 -30z"/>
<path d="M10620 4889 c-15 -28 -9 -63 13 -67 19 -4 37 31 30 59 -7 26 -31 31
-43 8z m30 -23 c0 -14 -5 -28 -10 -31 -13 -8 -24 20 -16 40 9 24 26 17 26 -9z"/>
<path d="M11740 4895 c-10 -12 -10 -15 2 -15 12 0 14 -10 10 -50 -3 -33 -1
-50 7 -50 6 0 11 15 11 34 0 18 3 48 6 65 5 24 3 31 -9 31 -8 0 -20 -7 -27
-15z"/>
<path d="M10685 4890 c-3 -6 1 -7 9 -4 21 8 20 -15 -1 -38 -15 -17 -15 -20 -3
-28 21 -13 36 -12 23 1 -8 8 -9 16 -1 29 12 19 5 50 -11 50 -5 0 -13 -4 -16
-10z"/>
<path d="M11527 4814 c-4 -4 -7 -17 -7 -28 1 -19 1 -20 11 -3 11 19 8 43 -4
31z"/>
<path d="M9325 4420 c-12 -4 -27 -15 -34 -24 -11 -13 -10 -17 13 -26 30 -11
96 -10 96 2 0 4 -4 8 -10 8 -5 0 -9 5 -7 11 4 18 -36 38 -58 29z"/>
<path d="M9275 4319 c18 -32 40 -49 61 -49 32 0 54 10 54 25 0 15 -14 20 -79
30 -35 6 -42 5 -36 -6z"/>
<path d="M9727 4223 c8 -52 13 -54 13 -5 0 23 -4 42 -9 42 -6 0 -7 -17 -4 -37z"/>
<path d="M9767 4253 c-9 -8 -9 -68 -1 -76 13 -13 40 12 39 35 -2 39 -21 59
-38 41z m23 -19 c0 -8 -5 -12 -10 -9 -6 4 -8 11 -5 16 9 14 15 11 15 -7z m0
-34 c0 -5 -4 -10 -10 -10 -5 0 -10 5 -10 10 0 6 5 10 10 10 6 0 10 -4 10 -10z"/>
<path d="M9827 4244 c-14 -14 -7 -65 9 -71 20 -8 35 14 32 47 -3 24 -27 38
-41 24z m31 -40 c-5 -28 -28 -29 -28 -1 0 13 3 27 7 31 10 10 25 -10 21 -30z"/>
<path d="M9895 4238 c-3 -8 -7 -28 -8 -44 -2 -23 2 -29 18 -29 15 0 20 7 21
32 2 36 -22 66 -31 41z m25 -18 c0 -5 -4 -10 -10 -10 -5 0 -10 5 -10 10 0 6 5
10 10 10 6 0 10 -4 10 -10z m-6 -41 c-3 -5 -10 -7 -15 -3 -5 3 -7 10 -3 15 3
5 10 7 15 3 5 -3 7 -10 3 -15z"/>
<path d="M9980 4230 c-13 -8 -12 -10 3 -10 21 0 22 -23 2 -40 -22 -18 -18 -30
8 -30 17 0 19 2 7 10 -12 7 -11 12 5 30 16 18 17 23 4 35 -9 10 -19 11 -29 5z"/>
<path d="M10034 4216 c-10 -26 0 -71 16 -71 22 0 37 50 20 69 -16 20 -29 20
-36 2z m34 -32 c-5 -28 -28 -29 -28 -1 0 13 3 27 7 31 10 10 25 -10 21 -30z"/>
<path d="M11214 4215 c19 -15 19 -15 -5 -15 -23 -1 -23 -1 -5 -15 17 -13 18
-15 3 -15 -9 0 -17 -3 -17 -6 0 -12 34 -64 42 -64 11 0 10 7 -4 30 -11 17 -10
22 8 35 12 8 22 25 22 40 0 21 -5 25 -32 25 -29 -1 -30 -1 -12 -15z"/>
<path d="M10094 4196 c-8 -35 2 -58 23 -54 25 5 25 71 1 76 -12 2 -19 -5 -24
-22z m34 -13 c-4 -34 -28 -43 -28 -10 0 25 7 37 22 37 5 0 8 -12 6 -27z"/>
<path d="M10165 4210 c-4 -6 1 -10 9 -10 22 0 20 -13 -4 -35 -22 -20 -18 -35
8 -35 13 0 14 2 4 9 -10 6 -10 10 3 21 8 7 15 20 15 30 0 20 -26 34 -35 20z"/>
<path d="M11290 4205 c-12 -14 -11 -16 12 -10 41 10 42 -11 4 -53 -20 -22 -33
-42 -29 -46 11 -10 75 -7 68 4 -3 6 -16 10 -27 10 -21 0 -20 1 6 29 18 19 27
37 24 52 -4 29 -39 37 -58 14z"/>
<path d="M11387 4203 c-4 -3 -7 -17 -7 -29 0 -16 7 -24 22 -26 13 -2 24 -11
26 -21 4 -21 -27 -35 -38 -16 -5 7 -12 10 -16 6 -14 -13 22 -40 44 -33 35 11
39 46 8 72 -32 29 -33 34 0 34 14 0 23 4 19 10 -7 11 -48 14 -58 3z"/>
<path d="M10254 4165 c0 -19 3 -35 8 -35 4 0 8 16 8 35 0 46 -15 46 -16 0z"/>
<path d="M10295 4190 c-3 -6 1 -7 9 -4 21 8 21 -19 1 -36 -8 -7 -15 -16 -15
-21 0 -14 27 -10 28 4 1 6 4 24 8 40 5 21 3 27 -9 27 -9 0 -19 -4 -22 -10z"/>
<path d="M11521 4187 c-32 -39 -20 -117 18 -117 40 0 63 66 37 105 -18 28 -38
32 -55 12z m45 -33 c8 -30 -11 -77 -29 -72 -26 9 -19 98 8 98 8 0 18 -12 21
-26z"/>
<path d="M10355 4180 c3 -5 10 -10 16 -10 5 0 9 5 9 10 0 6 -7 10 -16 10 -8 0
-12 -4 -9 -10z"/>
<path d="M10400 4171 c0 -10 7 -21 15 -25 20 -7 19 -26 -1 -26 -8 0 -13 -4 -9
-10 9 -15 35 0 35 21 0 11 -7 22 -15 25 -20 8 -19 21 3 27 13 4 11 5 -5 6 -16
1 -23 -5 -23 -18z"/>
<path d="M11621 4176 c-22 -27 -24 -80 -4 -104 25 -31 50 -20 64 29 10 32 9
42 -5 64 -18 28 -38 32 -55 11z m45 -32 c8 -30 -11 -77 -29 -72 -16 6 -21 66
-6 84 17 21 28 17 35 -12z"/>
<path d="M10485 4170 c-3 -5 -2 -10 4 -10 5 0 12 -15 14 -32 3 -29 4 -27 5 10
2 39 -9 55 -23 32z"/>
<path d="M11726 4167 c-27 -20 -31 -78 -8 -107 17 -20 24 -23 38 -14 23 14 38
58 30 89 -8 32 -38 48 -60 32z m38 -23 c10 -27 7 -61 -9 -74 -21 -17 -35 -4
-35 34 0 46 31 74 44 40z"/>
<path d="M10538 4129 c3 -28 7 -37 13 -28 13 21 11 69 -4 69 -9 0 -11 -12 -9
-41z"/>
<path d="M10588 4163 c-2 -5 -1 -24 2 -43 l6 -35 5 38 c5 34 -4 59 -13 40z"/>
<path d="M10636 4163 c-12 -12 -6 -22 9 -17 21 9 19 -10 -5 -31 -26 -24 -25
-35 3 -35 15 0 18 3 9 9 -10 6 -10 10 3 21 8 7 15 20 15 30 0 18 -23 34 -34
23z"/>
<path d="M10362 4135 c0 -16 2 -22 5 -12 2 9 2 23 0 30 -3 6 -5 -1 -5 -18z"/>
<path d="M11460 4069 c0 -11 5 -17 10 -14 6 3 10 13 10 21 0 8 -4 14 -10 14
-5 0 -10 -9 -10 -21z"/>
<path d="M9157 3743 c-17 -16 -6 -54 18 -63 14 -5 25 -14 25 -20 0 -17 -29
-23 -45 -10 -10 8 -15 9 -15 2 0 -16 36 -33 54 -26 28 11 27 35 -4 62 -16 15
-30 30 -30 34 0 13 38 9 43 -4 2 -7 8 -10 12 -6 4 4 2 14 -5 23 -13 15 -42 20
-53 8z"/>
<path d="M9242 3698 c-29 -29 -3 -98 33 -84 22 8 18 25 -5 19 -13 -4 -20 0
-20 9 0 11 7 14 25 10 20 -3 25 0 25 15 0 21 -18 43 -35 43 -6 0 -16 -5 -23
-12z m38 -18 c0 -5 -7 -10 -15 -10 -8 0 -15 5 -15 10 0 6 7 10 15 10 8 0 15
-4 15 -10z"/>
<path d="M9320 3670 c0 -16 -3 -35 -6 -44 -3 -9 -1 -16 5 -16 6 0 11 13 11 30
0 16 7 33 16 38 14 8 13 10 -5 15 -18 4 -21 1 -21 -23z"/>
<path d="M9381 3679 c-2 -30 11 -79 21 -79 8 0 38 59 38 75 0 17 -19 0 -25
-22 l-7 -28 -13 35 c-8 19 -14 28 -14 19z"/>
<path d="M9458 3639 c-2 -22 -1 -42 3 -45 4 -2 9 14 11 37 2 22 1 42 -3 45 -4
2 -9 -14 -11 -37z"/>
<path d="M9507 3669 c-36 -21 -10 -100 28 -85 22 8 19 25 -4 19 -20 -5 -34 18
-25 42 7 18 26 19 42 3 9 -9 12 -9 12 0 0 18 -33 32 -53 21z"/>
<path d="M9585 3654 c-34 -34 -1 -97 41 -79 17 8 16 9 -8 13 -35 4 -37 22 -3
22 18 0 25 5 25 20 0 29 -34 44 -55 24z m40 -14 c3 -5 -3 -10 -14 -10 -12 0
-21 5 -21 10 0 6 6 10 14 10 8 0 18 -4 21 -10z"/>
<path d="M9669 3644 c-11 -14 -10 -19 9 -34 27 -23 28 -34 2 -27 -21 5 -28 -7
-10 -18 15 -10 50 5 50 20 0 8 -9 19 -20 25 -11 6 -20 15 -20 21 0 6 9 8 20 4
25 -8 26 1 1 14 -14 8 -22 7 -32 -5z"/>
<path d="M9345 3361 c65 -14 143 -21 119 -11 -11 4 -52 11 -90 14 -50 4 -58 3
-29 -3z"/>
<path d="M9333 3295 c-3 -9 -3 -18 -1 -21 3 -3 8 4 11 16 6 23 -1 27 -10 5z"/>
<path d="M9428 3273 c6 -2 18 -2 25 0 6 3 1 5 -13 5 -14 0 -19 -2 -12 -5z"/>
<path d="M9993 3265 c-3 -9 -3 -18 -1 -21 3 -3 8 4 11 16 6 23 -1 27 -10 5z"/>
<path d="M10043 3273 c9 -2 25 -2 35 0 9 3 1 5 -18 5 -19 0 -27 -2 -17 -5z"/>
<path d="M9371 3261 c-11 -7 -10 -13 9 -32 l22 -24 -11 23 c-7 12 -9 27 -6 32
8 12 4 12 -14 1z"/>
<path d="M10101 3214 c0 -11 3 -14 6 -6 3 7 2 16 -1 19 -3 4 -6 -2 -5 -13z"/>
<path d="M9295 3168 c4 -10 26 -18 58 -22 29 -4 67 -9 85 -12 21 -4 32 -2 32
5 0 7 -3 10 -7 8 -13 -8 -147 14 -161 25 -9 8 -11 7 -7 -4z"/>
<path d="M10010 3171 c39 -12 137 -22 120 -12 -8 4 -44 11 -80 14 -38 4 -54 3
-40 -2z"/>
<path d="M10748 3153 c6 -2 18 -2 25 0 6 3 1 5 -13 5 -14 0 -19 -2 -12 -5z"/>
<path d="M10682 3133 c2 -11 13 -19 28 -20 22 -1 22 -1 3 4 -25 5 -30 18 -10
26 7 3 4 6 -6 6 -12 1 -17 -5 -15 -16z"/>
<path d="M10797 3139 c7 -7 15 -10 18 -7 3 3 -2 9 -12 12 -14 6 -15 5 -6 -5z"/>
<path d="M10818 3113 c-27 -4 -61 -33 -39 -33 6 0 11 5 11 10 0 6 14 10 30 10
17 0 30 5 30 10 0 6 -1 9 -2 9 -2 -1 -15 -4 -30 -6z"/>
<path d="M11428 3093 c7 -3 16 -2 19 1 4 3 -2 6 -13 5 -11 0 -14 -3 -6 -6z"/>
<path d="M10043 3053 c9 -2 25 -2 35 0 9 3 1 5 -18 5 -19 0 -27 -2 -17 -5z"/>
<path d="M11380 3056 c0 -2 7 -7 16 -10 8 -3 12 -2 9 4 -6 10 -25 14 -25 6z"/>
<path d="M10118 3043 c7 -3 16 -2 19 1 4 3 -2 6 -13 5 -11 0 -14 -3 -6 -6z"/>
<path d="M10683 2993 c9 -2 23 -2 30 0 6 3 -1 5 -18 5 -16 0 -22 -2 -12 -5z"/>
<path d="M10768 2983 c7 -3 16 -2 19 1 4 3 -2 6 -13 5 -11 0 -14 -3 -6 -6z"/>
<path d="M9170 2940 c0 -5 5 -10 10 -10 6 0 10 5 10 10 0 6 -4 10 -10 10 -5 0
-10 -4 -10 -10z"/>
<path d="M9225 2920 c-3 -6 1 -7 9 -4 18 7 21 14 7 14 -6 0 -13 -4 -16 -10z"/>
<path d="M9157 2905 c-3 -5 6 -10 19 -10 13 0 24 5 24 10 0 6 -9 11 -20 11
-11 0 -21 -5 -23 -11z"/>
<path d="M9276 2911 c-4 -5 3 -7 14 -4 23 6 26 13 6 13 -8 0 -17 -4 -20 -9z"/>
<path d="M9381 2878 c-1 -22 4 -28 19 -28 14 0 20 6 19 23 -1 16 -2 18 -6 5
-6 -25 -21 -22 -26 5 -4 19 -4 18 -6 -5z"/>
<path d="M9490 2890 c0 -5 5 -10 10 -10 6 0 10 5 10 10 0 6 -4 10 -10 10 -5 0
-10 -4 -10 -10z"/>
<path d="M9535 2880 c-4 -6 -2 -17 5 -24 8 -11 8 -15 -2 -19 -8 -4 -7 -6 5 -6
9 -1 17 6 17 14 0 8 -5 15 -11 15 -6 0 -9 7 -5 15 6 17 0 20 -9 5z"/>
<path d="M9754 2861 c3 -4 10 -20 16 -35 5 -15 15 -24 20 -21 6 4 4 12 -5 21
-8 9 -15 22 -15 30 0 8 -5 14 -11 14 -5 0 -8 -4 -5 -9z"/>
<path d="M9807 2856 c-3 -8 -2 -27 3 -43 8 -26 8 -25 9 15 1 43 -3 52 -12 28z"/>
<path d="M9890 2856 c0 -2 9 -6 20 -9 11 -3 18 -1 14 4 -5 9 -34 13 -34 5z"/>
<path d="M9880 2806 c0 -31 6 -34 13 -6 3 11 1 23 -4 26 -5 3 -9 -6 -9 -20z"/>
<path d="M9959 2821 c8 -5 12 -18 8 -30 -3 -12 -1 -21 4 -21 5 0 9 14 9 30 0
22 -5 30 -17 30 -14 0 -15 -2 -4 -9z"/>
<path d="M10580 2793 c0 -21 4 -33 8 -27 4 6 15 13 25 17 25 9 17 41 -11 45
-19 3 -22 -1 -22 -35z m40 12 c0 -8 -7 -15 -15 -15 -8 0 -15 7 -15 15 0 8 7
15 15 15 8 0 15 -7 15 -15z"/>
<path d="M10000 2813 c0 -7 5 -15 11 -18 6 -4 8 -14 4 -24 -5 -12 -3 -13 6 -4
9 9 8 17 -5 34 -9 13 -16 18 -16 12z"/>
<path d="M10055 2810 c-3 -5 1 -20 9 -32 13 -18 16 -19 16 -5 0 9 -5 17 -11
17 -6 0 -9 7 -5 15 6 17 0 20 -9 5z"/>
<path d="M10100 2785 c0 -30 3 -35 23 -34 16 1 18 2 5 6 -20 5 -24 39 -6 45 7
3 6 7 -5 11 -14 5 -17 0 -17 -28z"/>
<path d="M9941 2784 c0 -11 3 -14 6 -6 3 7 2 16 -1 19 -3 4 -6 -2 -5 -13z"/>
<path d="M10164 2785 c-4 -8 -4 -22 0 -30 6 -16 36 -21 36 -5 0 5 -7 7 -15 4
-10 -4 -15 0 -15 14 0 11 6 23 13 25 9 4 9 6 -1 6 -7 1 -15 -6 -18 -14z"/>
<path d="M10658 2793 c14 -5 17 -43 3 -43 -5 0 -12 6 -14 13 -3 7 -6 5 -6 -5
-1 -12 6 -18 19 -18 16 0 20 7 20 30 0 22 -5 30 -17 29 -11 0 -13 -3 -5 -6z"/>
<path d="M10220 2782 c0 -4 9 -8 20 -8 11 0 20 4 20 8 0 4 -9 8 -20 8 -11 0
-20 -4 -20 -8z"/>
<path d="M10701 2775 c0 -11 4 -27 9 -35 9 -13 10 -13 9 0 0 8 -4 24 -9 35
l-9 20 0 -20z"/>
<path d="M10780 2761 c0 -42 15 -46 16 -5 0 19 -3 34 -8 34 -4 0 -8 -13 -8
-29z"/>
<path d="M10280 2761 c0 -5 7 -14 15 -21 16 -14 18 -10 9 14 -6 17 -24 22 -24
7z"/>
<path d="M10230 2736 c7 -7 13 -7 20 0 6 6 3 10 -10 10 -13 0 -16 -4 -10 -10z"/>
<path d="M11290 2732 c0 -4 10 -9 22 -9 18 -2 20 0 8 7 -18 12 -30 13 -30 2z"/>
<path d="M11319 2693 c-13 -16 -12 -17 4 -4 9 7 17 15 17 17 0 8 -8 3 -21 -13z"/>
<path d="M11355 2701 c-3 -7 0 -8 9 -5 9 3 16 2 16 -4 0 -5 -9 -12 -21 -15
-26 -7 -20 -32 7 -32 14 0 19 7 19 29 0 30 -18 46 -30 27z m25 -35 c0 -11 -19
-15 -25 -6 -3 5 1 10 9 10 9 0 16 -2 16 -4z"/>
<path d="M10514 2676 c-9 -37 -1 -61 21 -61 16 0 20 7 22 35 2 49 -32 70 -43
26z m33 -12 c-9 -9 -28 6 -21 18 4 6 10 6 17 -1 6 -6 8 -13 4 -17z m3 -29 c0
-8 -7 -15 -15 -15 -8 0 -15 7 -15 15 0 8 7 15 15 15 8 0 15 -7 15 -15z"/>
<path d="M11280 2678 c0 -19 2 -20 10 -8 13 19 13 30 0 30 -5 0 -10 -10 -10
-22z"/>
<path d="M11491 2663 c1 -34 2 -35 9 -13 11 36 11 50 0 50 -5 0 -10 -17 -9
-37z"/>
<path d="M11433 2674 c-5 -13 -7 -13 -14 -2 -6 9 -9 7 -9 -9 0 -30 14 -29 28
2 6 14 9 25 6 25 -2 0 -7 -7 -11 -16z"/>
<path d="M10691 2639 c-1 -26 3 -36 14 -36 17 0 19 9 6 23 -5 5 -11 18 -14 29
-3 12 -5 5 -6 -16z"/>
<path d="M10610 2653 c-1 -7 -3 -17 -4 -23 0 -5 -5 -10 -11 -9 -5 1 -9 6 -7
13 2 7 -1 6 -10 -2 -11 -11 -10 -14 2 -22 20 -12 44 11 37 36 -3 11 -6 13 -7
7z"/>
<path d="M10631 2638 c1 -19 2 -19 6 -5 3 11 11 16 19 13 8 -3 14 -1 14 4 0 6
-9 10 -20 10 -14 0 -20 -6 -19 -22z"/>
<path d="M10787 2633 c-21 -40 -22 -38 8 -38 14 0 25 3 25 8 0 4 -7 7 -15 7
-18 0 -20 17 -3 22 6 2 9 11 6 19 -3 9 -10 4 -21 -18z"/>
<path d="M10887 2633 c-4 -3 -7 -19 -7 -35 0 -31 24 -48 42 -30 7 7 4 10 -8 9
-15 -2 -19 5 -19 31 0 17 0 32 -1 32 0 0 -4 -3 -7 -7z"/>
<path d="M11545 2630 c-16 -7 -17 -9 -3 -9 9 -1 20 4 23 9 7 11 7 11 -20 0z"/>
<path d="M9368 2613 c6 -2 18 -2 25 0 6 3 1 5 -13 5 -14 0 -19 -2 -12 -5z"/>
<path d="M9290 2569 c0 -5 5 -7 10 -4 6 3 10 8 10 11 0 2 -4 4 -10 4 -5 0 -10
-5 -10 -11z"/>
<path d="M9360 2566 c0 -2 7 -9 15 -16 13 -11 14 -10 9 4 -5 14 -24 23 -24 12z"/>
<path d="M11243 2551 c2 -29 31 -51 47 -35 8 8 4 10 -12 10 -15 -1 -24 7 -29
24 -8 25 -8 25 -6 1z"/>
<path d="M11348 2535 c5 -29 -12 -33 -27 -7 -6 9 -10 13 -11 7 0 -20 18 -38
34 -32 17 7 22 42 7 51 -4 3 -6 -6 -3 -19z"/>
<path d="M11440 2526 c0 -20 2 -36 4 -36 8 0 12 61 4 66 -4 3 -8 -11 -8 -30z"/>
<path d="M11412 2520 c0 -19 2 -27 5 -17 2 9 2 25 0 35 -3 9 -5 1 -5 -18z"/>
<path d="M9422 2510 c0 -14 2 -19 5 -12 2 6 2 18 0 25 -3 6 -5 1 -5 -13z"/>
<path d="M11505 2513 c-4 -13 -12 -23 -17 -23 -5 0 -6 5 -3 10 3 6 1 10 -4 10
-17 0 -13 -20 5 -27 20 -8 37 10 31 33 -4 17 -6 17 -12 -3z"/>
<path d="M11534 2515 c-9 -23 3 -45 23 -44 17 1 17 2 0 6 -14 4 -18 12 -14 29
5 27 -1 32 -9 9z"/>
<path d="M11590 2498 c0 -36 4 -35 14 5 4 16 2 27 -4 27 -5 0 -10 -14 -10 -32z"/>
<path d="M9955 2491 c-3 -5 -2 -12 3 -15 5 -3 9 1 9 9 0 17 -3 19 -12 6z"/>
<path d="M9997 2469 c4 -13 8 -18 11 -10 2 7 -1 18 -6 23 -8 8 -9 4 -5 -13z"/>
<path d="M10073 2477 c9 -8 17 -18 17 -22 0 -4 -8 -4 -17 0 -14 5 -15 3 -6 -6
12 -12 33 -5 33 11 0 5 -10 14 -22 20 -21 10 -21 10 -5 -3z"/>
<path d="M9360 2450 c-9 -6 -10 -10 -3 -10 6 0 15 5 18 10 8 12 4 12 -15 0z"/>
<path d="M9406 2403 c-6 -14 -5 -15 5 -6 7 7 10 15 7 18 -3 3 -9 -2 -12 -12z"/>
<path d="M9919 2397 c5 -5 19 -7 32 -5 20 3 19 5 -9 9 -20 3 -29 2 -23 -4z"/>
<path d="M10081 2398 c0 -10 -5 -18 -11 -18 -5 0 -10 -10 -9 -22 0 -16 2 -18
6 -8 3 8 10 18 15 21 6 4 8 15 5 25 -4 17 -5 17 -6 2z"/>
<path d="M9343 2393 c9 -2 23 -2 30 0 6 3 -1 5 -18 5 -16 0 -22 -2 -12 -5z"/>
<path d="M9998 2383 c7 -3 16 -2 19 1 4 3 -2 6 -13 5 -11 0 -14 -3 -6 -6z"/>
<path d="M10042 2304 c-7 -8 -8 -14 -3 -14 10 0 25 19 20 25 -2 1 -10 -3 -17
-11z"/>
<path d="M9978 2303 c6 -2 18 -2 25 0 6 3 1 5 -13 5 -14 0 -19 -2 -12 -5z"/>
<path d="M10710 2285 c-7 -9 -8 -15 -2 -15 5 0 12 7 16 15 3 8 4 15 2 15 -2 0
-9 -7 -16 -15z"/>
<path d="M9110 2261 c0 -6 4 -13 10 -16 6 -3 7 1 4 9 -7 18 -14 21 -14 7z"/>
<path d="M9171 2253 c-1 -15 3 -21 13 -17 9 4 16 -3 19 -18 4 -21 4 -20 6 5 1
17 -4 27 -13 27 -8 0 -17 6 -19 13 -3 6 -6 2 -6 -10z"/>
<path d="M9281 2224 c0 -11 3 -14 6 -6 3 7 2 16 -1 19 -3 4 -6 -2 -5 -13z"/>
<path d="M9400 2225 c-17 -21 -4 -65 19 -65 10 0 21 7 25 15 4 12 2 13 -13 6
-10 -6 -21 -7 -25 -4 -12 12 -6 42 12 52 9 6 12 11 6 11 -6 0 -17 -7 -24 -15z"/>
<path d="M9244 2222 c-9 -5 -8 -11 2 -20 12 -11 14 -9 14 8 0 22 0 23 -16 12z"/>
<path d="M9470 2206 c0 -30 27 -42 35 -16 8 24 -1 40 -21 40 -8 0 -14 -10 -14
-24z m30 -1 c0 -8 -4 -15 -10 -15 -5 0 -10 7 -10 15 0 8 5 15 10 15 6 0 10 -7
10 -15z"/>
<path d="M11330 2215 c0 -9 5 -15 11 -13 6 2 11 8 11 13 0 5 -5 11 -11 13 -6
2 -11 -4 -11 -13z"/>
<path d="M11394 2216 c-8 -22 3 -33 18 -18 9 9 9 15 0 24 -9 9 -13 7 -18 -6z"/>
<path d="M9120 2206 c7 -7 13 -7 20 0 6 6 3 10 -10 10 -13 0 -16 -4 -10 -10z"/>
<path d="M11450 2200 c0 -13 5 -20 13 -17 6 2 12 10 12 17 0 7 -6 15 -12 18
-8 2 -13 -5 -13 -18z"/>
<path d="M9310 2201 c0 -5 9 -7 20 -4 11 3 20 7 20 9 0 2 -9 4 -20 4 -11 0
-20 -4 -20 -9z"/>
<path d="M9732 2150 c0 -19 2 -27 5 -17 2 9 2 25 0 35 -3 9 -5 1 -5 -18z"/>
<path d="M9757 2163 c-4 -3 -7 -16 -6 -27 0 -19 1 -19 10 3 10 24 8 36 -4 24z"/>
<path d="M9861 2136 c-15 -17 -4 -46 18 -46 11 0 12 3 4 8 -7 4 -11 18 -8 30
5 26 2 27 -14 8z"/>
<path d="M9811 2135 c0 -5 3 -16 8 -23 7 -11 9 -10 14 3 4 9 3 14 -2 10 -5 -3
-12 1 -14 7 -3 7 -6 9 -6 3z"/>
<path d="M9891 2124 c0 -11 3 -14 6 -6 3 7 2 16 -1 19 -3 4 -6 -2 -5 -13z"/>
<path d="M9928 2133 c7 -3 16 -2 19 1 4 3 -2 6 -13 5 -11 0 -14 -3 -6 -6z"/>
<path d="M9972 2110 c0 -19 2 -27 5 -17 2 9 2 25 0 35 -3 9 -5 1 -5 -18z"/>
<path d="M10001 2103 c1 -23 2 -24 6 -5 2 12 8 22 13 22 5 0 11 -10 13 -22 5
-20 5 -20 4 2 -1 15 -9 26 -19 28 -14 3 -18 -3 -17 -25z"/>
<path d="M10055 2110 c3 -5 8 -10 11 -10 2 0 4 5 4 10 0 6 -5 10 -11 10 -5 0
-7 -4 -4 -10z"/>
<path d="M10084 2097 c-4 -11 -1 -23 6 -30 10 -9 11 -9 6 1 -5 8 0 12 13 12
12 0 21 5 21 11 0 5 -5 7 -11 3 -6 -3 -15 0 -20 7 -6 11 -9 10 -15 -4z"/>
<path d="M10200 2094 c0 -8 5 -12 10 -9 6 4 8 11 5 16 -9 14 -15 11 -15 -7z"/>
<path d="M9930 2090 c-9 -6 -10 -10 -3 -10 6 0 15 5 18 10 8 12 4 12 -15 0z"/>
<path d="M10200 2055 c0 -8 4 -15 10 -15 5 0 7 7 4 15 -4 8 -8 15 -10 15 -2 0
-4 -7 -4 -15z"/>
<path d="M10562 2023 c-2 -35 1 -43 16 -43 11 0 13 3 5 8 -6 4 -13 23 -16 42
-4 33 -4 33 -5 -7z"/>
<path d="M10620 2025 c-9 -11 -11 -22 -4 -32 13 -21 25 -21 38 -1 8 14 7 21
-5 33 -14 15 -17 15 -29 0z m26 -31 c-5 -13 -10 -14 -18 -6 -6 6 -8 18 -4 28
5 13 10 14 18 6 6 -6 8 -18 4 -28z"/>
<path d="M10690 2023 c15 -7 12 -23 -5 -23 -8 0 -15 -8 -15 -17 0 -15 2 -16
10 -3 9 13 11 13 20 0 8 -12 10 -8 8 14 -2 16 -9 31 -16 32 -7 1 -8 0 -2 -3z"/>
<path d="M10732 2000 c0 -14 2 -19 5 -12 2 6 2 18 0 25 -3 6 -5 1 -5 -13z"/>
<path d="M10759 1988 c4 -28 6 -29 9 -9 2 13 0 27 -5 32 -6 6 -7 -3 -4 -23z"/>
<path d="M11260 1943 c0 -13 5 -23 10 -23 13 0 13 11 0 30 -8 12 -10 11 -10
-7z"/>
<path d="M11310 1924 c-6 -14 -14 -22 -20 -19 -5 3 -10 -1 -10 -9 0 -21 16
-20 25 2 7 15 9 14 15 -8 7 -21 8 -18 9 18 1 48 -5 53 -19 16z"/>
<path d="M11412 1900 c0 -14 2 -19 5 -12 2 6 2 18 0 25 -3 6 -5 1 -5 -13z"/>
<path d="M11447 1904 c-11 -11 -8 -42 5 -50 6 -4 8 -3 5 4 -8 12 2 42 13 42 5
0 11 -8 14 -17 4 -14 4 -14 3 2 -2 20 -27 32 -40 19z"/>
<path d="M11360 1866 c7 -7 13 -7 20 0 6 6 3 10 -10 10 -13 0 -16 -4 -10 -10z"/>
<path d="M9263 1853 c9 -2 23 -2 30 0 6 3 -1 5 -18 5 -16 0 -22 -2 -12 -5z"/>
<path d="M9157 1834 c-4 -4 -6 -21 -6 -38 1 -22 3 -25 6 -11 3 11 10 23 17 27
7 5 8 10 0 18 -6 6 -13 7 -17 4z"/>
<path d="M9428 1823 c7 -3 16 -2 19 1 4 3 -2 6 -13 5 -11 0 -14 -3 -6 -6z"/>
<path d="M9518 1813 c6 -2 18 -2 25 0 6 3 1 5 -13 5 -14 0 -19 -2 -12 -5z"/>
<path d="M9674 1788 c-3 -4 11 -8 30 -8 20 0 36 2 36 4 0 8 -61 12 -66 4z"/>
<path d="M9803 1773 c9 -2 23 -2 30 0 6 3 -1 5 -18 5 -16 0 -22 -2 -12 -5z"/>
<path d="M9864 1763 c10 -11 37 -12 30 -2 -3 5 -12 9 -21 9 -9 0 -13 -3 -9 -7z"/>
<path d="M9151 1734 c0 -11 3 -14 6 -6 3 7 2 16 -1 19 -3 4 -6 -2 -5 -13z"/>
<path d="M9940 1741 c0 -4 13 -8 29 -7 16 1 27 4 24 9 -6 10 -53 9 -53 -2z"/>
<path d="M10188 1703 c7 -3 16 -2 19 1 4 3 -2 6 -13 5 -11 0 -14 -3 -6 -6z"/>
<path d="M10268 1693 c12 -2 30 -2 40 0 9 3 -1 5 -23 4 -22 0 -30 -2 -17 -4z"/>
<path d="M10403 1668 c0 -9 16 -13 49 -13 47 0 70 14 26 16 -13 0 -35 3 -49 5
-16 3 -26 0 -26 -8z"/>
<path d="M10538 1653 c7 -3 16 -2 19 1 4 3 -2 6 -13 5 -11 0 -14 -3 -6 -6z"/>
<path d="M9142 1630 c0 -14 2 -19 5 -12 2 6 2 18 0 25 -3 6 -5 1 -5 -13z"/>
<path d="M10700 1626 c0 -2 7 -6 15 -10 8 -3 15 -1 15 4 0 6 -7 10 -15 10 -8
0 -15 -2 -15 -4z"/>
<path d="M10928 1593 c7 -3 16 -2 19 1 4 3 -2 6 -13 5 -11 0 -14 -3 -6 -6z"/>
<path d="M10975 1580 c3 -5 15 -10 26 -10 11 0 17 5 14 10 -3 6 -15 10 -26 10
-11 0 -17 -4 -14 -10z"/>
<path d="M9130 1548 c0 -36 4 -35 14 5 4 16 2 27 -4 27 -5 0 -10 -14 -10 -32z"/>
<path d="M11160 1556 c0 -2 9 -6 20 -9 11 -3 20 -1 20 4 0 5 -9 9 -20 9 -11 0
-20 -2 -20 -4z"/>
<path d="M11230 1540 c8 -5 22 -10 30 -10 13 0 13 1 0 10 -8 5 -22 10 -30 10
-13 0 -13 -1 0 -10z"/>
<path d="M11288 1533 c6 -2 18 -2 25 0 6 3 1 5 -13 5 -14 0 -19 -2 -12 -5z"/>
<path d="M11423 1497 c0 -7 9 -14 19 -14 16 -2 17 1 8 13 -15 18 -27 18 -27 1z"/>
<path d="M10873 1465 c-27 -32 -32 -105 -8 -129 8 -8 15 -21 15 -29 0 -19 55
-32 234 -58 77 -11 157 -23 177 -26 40 -6 79 10 79 32 0 8 4 15 8 15 13 0 14
79 1 115 -15 39 -37 51 -129 65 -36 6 -87 15 -115 21 -27 5 -93 12 -145 15
-93 5 -95 5 -117 -21z m83 -62 c5 -21 8 -24 11 -10 4 17 24 23 36 10 10 -10
60 -11 73 -2 7 6 16 -1 24 -16 10 -18 16 -22 21 -13 17 27 19 -2 3 -36 -18
-37 -28 -44 -39 -26 -3 6 -1 10 4 10 6 0 11 7 11 16 0 10 -5 12 -12 7 -7 -4
-22 -9 -33 -10 -10 -2 -22 -8 -26 -14 -10 -17 -20 6 -12 28 6 16 5 17 -13 3
-10 -8 -22 -19 -25 -23 -3 -5 -14 4 -23 18 -10 16 -23 24 -32 21 -17 -7 -18 5
-2 39 15 32 24 32 34 -2z m230 -28 c6 -14 8 -13 20 2 12 17 13 16 14 -6 0 -18
3 -21 13 -12 8 6 17 8 21 4 7 -7 27 -12 64 -16 18 -2 22 -7 18 -22 -3 -11 -6
-23 -6 -26 0 -10 -50 -6 -50 4 0 4 -11 5 -24 1 -13 -3 -27 -1 -30 5 -4 5 -13
8 -21 4 -10 -3 -15 1 -16 13 0 11 -3 14 -6 7 -10 -25 -23 -12 -23 22 0 36 16
47 26 20z"/>
<path d="M11446 1452 c7 -4 14 -16 17 -27 4 -15 5 -14 6 8 1 20 -4 27 -16 27
-12 0 -14 -3 -7 -8z"/>
<path d="M11450 1381 c0 -11 4 -23 10 -26 6 -4 9 5 8 19 -3 30 -18 35 -18 7z"/>
<path d="M9112 1300 c0 -19 2 -27 5 -17 2 9 2 25 0 35 -3 9 -5 1 -5 -18z"/>
<path d="M11447 1318 c-2 -7 -1 -22 4 -33 6 -16 8 -14 8 13 1 33 -4 41 -12 20z"/>
<path d="M9945 1280 c3 -5 14 -10 23 -10 15 0 15 2 2 10 -20 13 -33 13 -25 0z"/>
<path d="M9880 1259 c0 -5 5 -7 10 -4 6 3 10 8 10 11 0 2 -4 4 -10 4 -5 0 -10
-5 -10 -11z"/>
<path d="M9107 1231 c-4 -18 -6 -50 -6 -70 1 -27 4 -21 10 24 10 66 6 100 -4
46z"/>
<path d="M9991 1244 c0 -11 3 -14 6 -6 3 7 2 16 -1 19 -3 4 -6 -2 -5 -13z"/>
<path d="M10116 1223 c10 -15 19 -30 21 -32 2 -2 3 4 3 15 0 11 -9 25 -20 32
-21 13 -21 12 -4 -15z"/>
<path d="M10168 1233 c6 -2 18 -2 25 0 6 3 1 5 -13 5 -14 0 -19 -2 -12 -5z"/>
<path d="M9940 1221 c0 -5 5 -13 10 -16 6 -3 10 -2 10 4 0 5 -4 13 -10 16 -5
3 -10 2 -10 -4z"/>
<path d="M11451 1214 c0 -11 3 -14 6 -6 3 7 2 16 -1 19 -3 4 -6 -2 -5 -13z"/>
<path d="M9775 1209 c-4 -6 -5 -12 -2 -15 2 -3 7 2 10 11 7 17 1 20 -8 4z"/>
<path d="M9843 1175 c0 -27 2 -38 4 -22 2 15 2 37 0 50 -2 12 -4 0 -4 -28z"/>
<path d="M10002 1200 c0 -14 2 -19 5 -12 2 6 2 18 0 25 -3 6 -5 1 -5 -13z"/>
<path d="M10221 1215 c0 -5 4 -17 9 -25 7 -12 12 -12 22 -2 9 9 9 12 -4 12 -9
0 -19 6 -21 13 -3 6 -6 8 -6 2z"/>
<path d="M9920 1187 c0 -16 4 -26 10 -22 12 8 13 3 0 -29 -7 -20 -6 -26 4 -26
9 0 15 14 18 39 2 22 0 37 -4 35 -4 -2 -11 4 -17 13 -9 16 -10 14 -11 -10z"/>
<path d="M10059 1200 c-1 -5 -2 -16 -3 -22 -1 -7 2 -19 7 -25 5 -7 6 -24 3
-38 -4 -14 -2 -25 3 -25 14 0 24 55 16 90 -6 28 -24 42 -26 20z"/>
<path d="M10301 1193 c-1 -6 -4 -20 -7 -30 -5 -17 -5 -17 6 0 6 10 9 23 6 30
-3 9 -5 9 -5 0z"/>
<path d="M10441 1174 c0 -11 3 -14 6 -6 3 7 2 16 -1 19 -3 4 -6 -2 -5 -13z"/>
<path d="M11443 1145 c0 -22 2 -30 4 -17 2 12 2 30 0 40 -3 9 -5 -1 -4 -23z"/>
<path d="M10565 1160 c-3 -6 1 -7 9 -4 18 7 21 14 7 14 -6 0 -13 -4 -16 -10z"/>
<path d="M10624 1158 c-3 -4 2 -8 10 -8 8 0 17 4 20 8 3 5 -2 9 -10 9 -8 0
-17 -4 -20 -9z"/>
<path d="M10680 1152 c0 -4 9 -8 20 -8 11 0 20 4 20 8 0 4 -9 8 -20 8 -11 0
-20 -4 -20 -8z"/>
<path d="M10419 1133 c-13 -16 -12 -17 4 -4 9 7 17 15 17 17 0 8 -8 3 -21 -13z"/>
<path d="M10131 1124 c0 -11 3 -14 6 -6 3 7 2 16 -1 19 -3 4 -6 -2 -5 -13z"/>
<path d="M10310 1131 c0 -6 5 -13 11 -17 7 -4 9 -23 5 -53 -5 -41 -3 -48 16
-60 22 -13 22 -13 7 5 -11 13 -15 30 -12 51 3 18 2 41 -2 50 -5 10 -7 21 -7
26 1 4 -2 7 -8 7 -5 0 -10 -4 -10 -9z"/>
<path d="M10355 1130 c-3 -5 -1 -10 4 -10 6 0 11 5 11 10 0 6 -2 10 -4 10 -3
0 -8 -4 -11 -10z"/>
<path d="M10798 1123 c7 -3 16 -2 19 1 4 3 -2 6 -13 5 -11 0 -14 -3 -6 -6z"/>
<path d="M9994 1103 c2 -12 -1 -24 -8 -27 -8 -3 -8 -5 1 -5 17 -1 22 11 12 34
-9 19 -9 19 -5 -2z"/>
<path d="M9095 1100 c-3 -5 -1 -10 4 -10 6 0 11 5 11 10 0 6 -2 10 -4 10 -3 0
-8 -4 -11 -10z"/>
<path d="M10376 1098 c3 -5 10 -6 15 -3 13 9 11 12 -6 12 -8 0 -12 -4 -9 -9z"/>
<path d="M10433 1089 c-1 -10 2 -19 8 -19 11 0 12 27 1 34 -4 2 -9 -4 -9 -15z"/>
<path d="M10175 1090 c4 -6 11 -8 16 -5 14 9 11 15 -7 15 -8 0 -12 -5 -9 -10z"/>
<path d="M10465 1090 c3 -5 8 -10 11 -10 2 0 4 5 4 10 0 6 -5 10 -11 10 -5 0
-7 -4 -4 -10z"/>
<path d="M10536 1092 c-4 -7 -6 -14 -5 -16 45 -30 55 -33 67 -20 16 18 15 29
-2 15 -17 -14 -44 -5 -48 17 -3 13 -5 14 -12 4z"/>
<path d="M9889 1073 c6 -13 19 -23 28 -23 9 0 14 1 12 3 -2 1 -15 11 -28 22
l-24 20 12 -22z"/>
<path d="M10119 1083 c-1 -7 -2 -18 -3 -24 0 -5 -12 -19 -26 -30 l-25 -20 45
17 c49 19 73 34 65 42 -2 3 -11 -1 -20 -8 -12 -10 -16 -8 -24 11 -5 13 -11 18
-12 12z"/>
<path d="M10282 1070 c0 -14 2 -19 5 -12 2 6 2 18 0 25 -3 6 -5 1 -5 -13z"/>
<path d="M10225 1069 c-4 -6 -5 -12 -2 -15 2 -3 7 2 10 11 7 17 1 20 -8 4z"/>
<path d="M9950 1060 c-9 -6 -10 -10 -3 -10 6 0 15 5 18 10 8 12 4 12 -15 0z"/>
<path d="M10660 1060 c-12 -8 -12 -10 -1 -10 9 0 12 -12 10 -44 -2 -24 -1 -42
4 -39 4 2 7 0 7 -6 0 -5 -5 -11 -12 -13 -7 -3 -4 -7 7 -12 11 -4 16 -4 13 0
-4 4 -3 15 2 25 6 10 6 20 1 23 -4 3 -6 16 -4 30 7 33 -8 58 -27 46z"/>
<path d="M10830 1056 c0 -8 4 -17 9 -20 5 -4 7 3 4 14 -6 23 -13 26 -13 6z"/>
<path d="M10390 1035 c0 -15 4 -24 10 -20 6 3 10 12 10 20 0 8 -4 17 -10 20
-6 4 -10 -5 -10 -20z"/>
<path d="M10616 1041 c-19 -7 -19 -8 2 -13 15 -4 22 -2 22 8 0 8 -1 14 -2 13
-2 0 -12 -4 -22 -8z"/>
<path d="M10521 1024 c0 -11 3 -14 6 -6 3 7 2 16 -1 19 -3 4 -6 -2 -5 -13z"/>
<path d="M10762 1014 c-12 -8 -22 -21 -21 -27 0 -9 2 -9 6 1 2 6 11 12 18 12
7 0 15 7 19 15 7 19 6 19 -22 -1z"/>
<path d="M10044 1012 c3 -5 0 -12 -6 -15 -7 -2 -10 -7 -7 -11 3 -4 12 0 18 8
9 11 9 16 0 22 -7 4 -9 3 -5 -4z"/>
<path d="M9760 1001 c0 -5 -8 -12 -17 -14 -15 -4 -15 -5 -2 -6 9 0 22 6 29 14
9 10 9 15 1 15 -6 0 -11 -4 -11 -9z"/>
<path d="M9790 1001 c0 -4 11 -6 25 -3 14 2 25 6 25 8 0 2 -11 4 -25 4 -14 0
-25 -4 -25 -9z"/>
<path d="M10800 999 c0 -5 12 -9 27 -9 30 0 27 9 -6 15 -11 2 -21 0 -21 -6z"/>
<path d="M10863 996 c0 -8 6 -12 14 -9 7 3 10 9 7 14 -8 14 -21 11 -21 -5z"/>
<path d="M11431 984 c0 -11 3 -14 6 -6 3 7 2 16 -1 19 -3 4 -6 -2 -5 -13z"/>
<path d="M9900 980 c0 -5 9 -10 21 -10 11 0 17 5 14 10 -3 6 -13 10 -21 10 -8
0 -14 -4 -14 -10z"/>
<path d="M10415 980 c-4 -6 -11 -8 -16 -5 -17 11 -9 -4 15 -28 29 -29 35 -27
28 8 -5 29 -18 40 -27 25z"/>
<path d="M9998 973 c7 -3 16 -2 19 1 4 3 -2 6 -13 5 -11 0 -14 -3 -6 -6z"/>
<path d="M10553 943 c9 -2 25 -2 35 0 9 3 1 5 -18 5 -19 0 -27 -2 -17 -5z"/>
<path d="M10615 940 c-3 -6 1 -7 9 -4 18 7 21 14 7 14 -6 0 -13 -4 -16 -10z"/>
<path d="M10891 934 c0 -11 3 -14 6 -6 3 7 2 16 -1 19 -3 4 -6 -2 -5 -13z"/>
<path d="M10057 926 c-18 -18 -33 -97 -23 -122 9 -24 31 -11 34 22 7 74 9 77
57 70 28 -5 46 -3 50 4 11 18 -7 29 -56 36 -35 5 -49 2 -62 -10z"/>
<path d="M10300 880 c0 -15 7 -20 26 -20 51 0 64 -16 64 -76 0 -47 3 -55 18
-52 12 2 18 15 20 47 5 67 -4 91 -43 107 -51 21 -85 19 -85 -6z"/>
<path d="M10460 890 c0 -5 5 -10 11 -10 5 0 7 5 4 10 -3 6 -8 10 -11 10 -2 0
-4 -4 -4 -10z"/>
<path d="M10490 879 c0 -5 5 -7 10 -4 6 3 10 8 10 11 0 2 -4 4 -10 4 -5 0 -10
-5 -10 -11z"/>
<path d="M10530 886 c0 -2 7 -6 15 -10 8 -3 15 -1 15 4 0 6 -7 10 -15 10 -8 0
-15 -2 -15 -4z"/>
<path d="M10760 830 c0 -5 5 -10 11 -10 5 0 7 5 4 10 -3 6 -8 10 -11 10 -2 0
-4 -4 -4 -10z"/>
<path d="M10870 815 c0 -8 4 -15 10 -15 5 0 7 7 4 15 -4 8 -8 15 -10 15 -2 0
-4 -7 -4 -15z"/>
<path d="M10127 813 c-4 -3 -7 -26 -7 -49 0 -39 3 -44 28 -50 15 -3 34 -8 44
-10 13 -4 17 6 23 47 5 39 4 54 -6 60 -17 10 -73 12 -82 2z m72 -29 c2 -2 0
-15 -3 -29 -5 -20 -12 -26 -29 -23 -23 3 -33 28 -23 54 4 11 13 13 28 8 13 -3
25 -8 27 -10z"/>
<path d="M10160 765 c0 -8 5 -15 10 -15 6 0 10 7 10 15 0 8 -4 15 -10 15 -5 0
-10 -7 -10 -15z"/>
<path d="M10906 795 c-3 -8 -1 -15 4 -15 6 0 10 7 10 15 0 8 -2 15 -4 15 -2 0
-6 -7 -10 -15z"/>
<path d="M10988 803 c7 -3 16 -2 19 1 4 3 -2 6 -13 5 -11 0 -14 -3 -6 -6z"/>
<path d="M10236 778 c-13 -49 -7 -77 17 -83 68 -16 72 -14 75 41 3 46 1 52
-20 58 -44 11 -65 7 -72 -16z m58 -4 c23 -9 22 -64 -1 -64 -32 0 -46 16 -39
44 7 27 13 30 40 20z"/>
<path d="M10270 745 c0 -8 5 -15 10 -15 6 0 10 7 10 15 0 8 -4 15 -10 15 -5 0
-10 -7 -10 -15z"/>
<path d="M11400 764 c0 -8 5 -12 10 -9 6 4 8 11 5 16 -9 14 -15 11 -15 -7z"/>
<path d="M11113 758 c16 -12 125 -13 113 -1 -9 9 -86 8 -86 -1 0 -6 -5 -5 -12
2 -7 7 -16 12 -22 12 -5 0 -2 -6 7 -12z"/>
<path d="M11283 755 c-3 -9 -3 -18 -1 -21 3 -3 8 4 11 16 6 23 -1 27 -10 5z"/>
<path d="M10230 661 c0 -6 5 -13 10 -16 6 -3 10 1 10 9 0 9 -4 16 -10 16 -5 0
-10 -4 -10 -9z"/>
<path d="M10292 649 c2 -6 8 -10 13 -10 5 0 11 4 13 10 2 6 -4 11 -13 11 -9 0
-15 -5 -13 -11z"/>
<path d="M10260 615 c0 -8 5 -15 10 -15 6 0 10 7 10 15 0 8 -4 15 -10 15 -5 0
-10 -7 -10 -15z"/>
<path d="M9495 871 c-8 -14 5 -19 83 -33 65 -11 95 -8 79 8 -4 4 -138 34 -154
34 -1 0 -4 -4 -8 -9z"/>
<path d="M10150 635 c0 -8 5 -15 10 -15 6 0 10 7 10 15 0 8 -4 15 -10 15 -5 0
-10 -7 -10 -15z"/>
<path d="M11402 518 c-25 -25 -10 -78 22 -78 44 0 61 44 28 73 -22 20 -34 21
-50 5z"/>
<path d="M1836 6404 c-24 -23 -24 -485 0 -508 12 -13 40 -16 143 -16 111 0
130 2 144 18 15 16 17 49 17 254 0 215 -2 236 -18 251 -27 24 -263 25 -286 1z
m268 0 c9 -3 16 -17 16 -30 l0 -24 -145 0 c-149 0 -155 2 -135 41 10 17 22 19
130 19 65 0 125 -3 134 -6z m23 -224 c1 -85 0 -165 -2 -176 -4 -20 -12 -22
-79 -23 -72 -1 -75 0 -96 29 -12 17 -19 37 -16 45 3 8 1 15 -4 15 -15 0 -11
-32 5 -54 24 -32 18 -37 -42 -34 l-58 3 -3 165 c-1 90 0 170 3 177 3 11 37 13
147 11 l143 -3 2 -155z m-4 -244 c-1 -16 -8 -33 -15 -38 -7 -4 -66 -8 -130 -8
-127 0 -148 8 -148 56 l0 25 148 -3 147 -3 -2 -29z"/>
<path d="M1935 6380 c3 -5 8 -10 11 -10 2 0 4 5 4 10 0 6 -5 10 -11 10 -5 0
-7 -4 -4 -10z"/>
<path d="M1970 6379 c0 -5 5 -7 10 -4 6 3 10 8 10 11 0 2 -4 4 -10 4 -5 0 -10
-5 -10 -11z"/>
<path d="M1932 6296 c-18 -13 -36 -26 -39 -30 -4 -3 36 -6 87 -6 l94 0 -40 30
c-47 35 -59 36 -102 6z m63 -6 c3 -5 -3 -10 -15 -10 -12 0 -18 5 -15 10 3 6
10 10 15 10 5 0 12 -4 15 -10z"/>
<path d="M1895 6200 l0 -50 85 0 85 0 0 50 0 50 -85 0 -85 0 0 -50z m55 5 c0
-29 -16 -41 -24 -19 -8 21 3 56 15 49 5 -4 9 -17 9 -30z m40 1 c0 -14 -4 -28
-10 -31 -6 -4 -10 7 -10 24 0 17 5 31 10 31 6 0 10 -11 10 -24z m40 -7 c0 -17
-4 -28 -10 -24 -5 3 -10 17 -10 31 0 13 5 24 10 24 6 0 10 -14 10 -31z"/>
<path d="M1975 6130 c-3 -6 1 -7 9 -4 12 5 16 -1 16 -26 0 -18 4 -29 10 -25 6
3 10 1 10 -5 0 -7 7 -10 15 -6 10 3 15 -1 16 -12 0 -10 3 -12 6 -4 2 6 9 10
14 6 5 -3 9 -3 9 0 0 3 -14 13 -30 21 -17 9 -35 27 -40 40 -10 26 -24 32 -35
15z"/>
<path d="M1957 6067 c-3 -8 -1 -20 4 -28 6 -10 9 -7 9 14 0 29 -5 35 -13 14z"/>
<path d="M1955 5930 c-4 -6 7 -10 25 -10 18 0 29 4 25 10 -3 6 -15 10 -25 10
-10 0 -22 -4 -25 -10z"/>
<path d="M2870 6190 l0 -220 40 0 40 0 0 75 0 75 71 0 c56 0 79 5 106 22 63
38 83 135 40 199 -36 55 -76 69 -194 69 l-103 0 0 -220z m223 118 c30 -40 17
-95 -28 -114 -19 -8 -53 -14 -75 -14 l-40 0 0 80 0 81 61 -3 c54 -3 65 -7 82
-30z"/>
<path d="M4250 6190 l0 -220 40 0 39 0 3 62 c4 85 21 85 77 3 l44 -65 49 0 49
0 -66 89 c-36 49 -65 92 -65 96 0 4 25 34 55 68 30 33 55 64 55 69 0 4 -17 8
-37 8 -34 1 -44 -6 -100 -67 l-62 -68 -1 123 0 122 -40 0 -40 0 0 -220z"/>
<path d="M5481 6238 c34 -95 68 -194 77 -220 l16 -48 52 0 51 0 73 208 c40
114 75 213 77 220 4 8 -8 12 -40 12 l-45 0 -52 -162 c-29 -90 -56 -167 -60
-171 -4 -5 -33 68 -65 162 l-57 171 -44 0 -44 0 61 -172z"/>
<path d="M6850 6191 l0 -221 40 0 40 0 -2 218 -3 217 -37 3 -38 3 0 -220z"/>
<path d="M5150 6341 c0 -37 -2 -41 -25 -41 -21 0 -25 -5 -25 -29 0 -23 5 -30
23 -33 21 -3 22 -8 27 -115 4 -95 8 -116 25 -132 22 -22 93 -37 113 -23 20 13
-2 60 -30 64 -22 3 -23 7 -26 106 l-3 102 31 0 c27 0 30 3 30 30 0 27 -3 30
-29 30 -27 0 -30 3 -33 38 -3 35 -5 37 -40 40 l-38 3 0 -40z"/>
<path d="M7120 6341 c0 -33 -4 -40 -22 -43 -17 -2 -24 -11 -26 -30 -3 -24 0
-28 22 -28 l26 0 0 -109 c0 -100 2 -112 23 -136 15 -18 35 -28 62 -31 50 -6
65 4 58 38 -4 20 -12 28 -32 30 l-26 3 -3 103 -3 102 31 0 c27 0 30 3 30 30 0
27 -3 30 -30 30 -28 0 -30 2 -30 40 l0 40 -40 0 c-40 0 -40 0 -40 -39z"/>
<path d="M3402 6280 c-69 -42 -95 -181 -46 -247 39 -52 71 -68 134 -68 71 0
104 21 138 86 43 81 12 198 -62 233 -48 23 -123 21 -164 -4z m137 -64 c30 -32
37 -91 18 -139 -26 -62 -93 -70 -131 -15 -30 42 -13 156 26 171 31 13 66 6 87
-17z"/>
<path d="M3874 6286 c-39 -17 -72 -70 -80 -127 -17 -125 74 -217 193 -194 43
8 103 63 103 94 0 33 -58 29 -85 -6 -16 -19 -30 -26 -54 -25 -41 1 -57 14 -72
59 -24 72 14 153 72 153 26 0 69 -32 69 -52 0 -4 16 -8 35 -8 25 0 35 4 35 15
0 29 -30 75 -60 90 -36 18 -114 19 -156 1z"/>
<path d="M4732 6280 c-67 -41 -91 -154 -51 -236 43 -89 176 -112 249 -44 17
16 30 35 30 44 0 22 -58 21 -83 -1 -29 -27 -95 -23 -118 6 -10 13 -19 32 -19
42 0 18 9 19 116 19 l117 0 -6 51 c-7 57 -44 114 -84 130 -42 16 -115 11 -151
-11z m139 -61 c33 -33 21 -52 -35 -56 -53 -5 -96 2 -96 16 0 4 9 20 21 35 26
33 79 36 110 5z"/>
<path d="M5993 6280 c-28 -17 -60 -57 -51 -64 2 -2 17 -6 34 -9 24 -5 36 -1
49 13 29 32 100 25 105 -10 5 -33 -2 -39 -47 -45 -87 -11 -101 -16 -127 -40
-53 -49 -24 -143 48 -161 35 -8 91 3 106 21 16 19 30 19 30 0 0 -10 11 -15 35
-15 l35 0 0 131 c0 72 -5 139 -10 150 -27 49 -146 67 -207 29z m140 -195 c-3
-36 -35 -65 -73 -65 -27 0 -60 22 -60 39 0 20 31 44 66 51 60 12 69 8 67 -25z"/>
<path d="M6384 6285 c-4 -8 -5 -66 -3 -129 4 -97 7 -119 25 -143 42 -57 115
-67 162 -23 27 25 32 25 32 -1 0 -17 5 -20 38 -17 l37 3 0 160 0 160 -37 3
-36 3 -4 -116 c-3 -109 -5 -118 -27 -136 -33 -27 -66 -24 -90 7 -18 23 -21 41
-21 135 l0 109 -35 0 c-23 0 -38 -6 -41 -15z"/>
<path d="M2840 5528 c0 -7 12 -31 25 -53 15 -24 25 -55 25 -77 0 -27 4 -38 15
-38 10 0 15 10 15 33 0 17 14 55 30 82 32 54 35 65 20 65 -5 0 -22 -19 -36
-42 l-27 -42 -24 42 c-25 41 -43 54 -43 30z"/>
<path d="M3627 5534 c-4 -4 -7 -45 -7 -91 0 -66 3 -83 15 -83 10 0 15 15 17
58 l3 57 21 -54 c11 -30 26 -57 33 -59 6 -2 24 23 39 55 l27 58 3 -57 c5 -90
22 -68 22 26 0 117 -19 125 -59 24 -13 -32 -26 -58 -30 -58 -3 0 -17 28 -31
62 -24 59 -39 76 -53 62z"/>
<path d="M4787 5534 c-3 -6 8 -31 24 -57 18 -29 29 -61 29 -82 0 -24 5 -35 15
-35 11 0 15 11 15 38 0 21 11 54 25 77 29 47 34 75 9 54 -8 -7 -22 -26 -31
-43 l-16 -31 -16 25 c-31 46 -48 63 -54 54z"/>
<path d="M5577 5534 c-4 -4 -7 -45 -7 -91 0 -63 3 -84 13 -81 6 3 13 21 15 41
3 35 5 37 38 37 19 0 34 5 34 10 0 6 -16 10 -35 10 -30 0 -35 3 -35 24 0 21 5
25 38 28 20 2 37 8 37 13 0 12 -87 19 -98 9z"/>
<path d="M6327 5533 c-4 -3 -7 -17 -7 -29 0 -20 -4 -22 -34 -17 -27 4 -36 1
-50 -18 -20 -29 -20 -58 -1 -87 13 -17 24 -21 60 -20 l45 2 0 88 c0 88 -1 94
-13 81z m-16 -87 c14 -29 -3 -66 -30 -66 -30 0 -43 54 -19 78 19 19 37 14 49
-12z"/>
<path d="M6860 5475 c0 -37 4 -65 10 -65 6 0 10 28 10 65 0 37 -4 65 -10 65
-6 0 -10 -28 -10 -65z"/>
<path d="M6960 5500 c0 -16 5 -30 10 -30 6 0 10 14 10 30 0 17 -4 30 -10 30
-5 0 -10 -13 -10 -30z"/>
<path d="M7000 5506 c0 -14 5 -28 10 -31 6 -4 10 7 10 24 0 17 -4 31 -10 31
-5 0 -10 -11 -10 -24z"/>
<path d="M3037 5472 c-21 -23 -22 -76 -1 -96 8 -9 28 -16 44 -16 38 0 60 24
60 64 0 58 -66 89 -103 48z m68 -47 c0 -35 -3 -40 -24 -40 -28 0 -42 30 -30
63 6 17 15 22 31 20 20 -3 23 -9 23 -43z"/>
<path d="M3210 5436 c0 -63 11 -75 68 -74 l42 0 0 64 c0 50 -3 64 -15 64 -11
0 -15 -12 -15 -50 0 -36 -4 -52 -15 -56 -26 -10 -45 16 -45 62 0 24 -4 44 -10
44 -5 0 -10 -24 -10 -54z"/>
<path d="M3390 5423 c0 -73 17 -86 22 -15 2 38 7 49 26 57 32 14 27 25 -13 23
l-35 -1 0 -64z"/>
<path d="M3887 5472 c-38 -42 -9 -112 46 -112 35 0 57 25 57 65 0 18 -7 41
-16 49 -21 22 -67 20 -87 -2z m74 -23 c16 -31 -4 -71 -34 -67 -39 5 -37 88 2
88 11 0 25 -10 32 -21z"/>
<path d="M4060 5423 c0 -35 4 -63 10 -63 6 0 10 17 10 38 0 46 20 78 44 69 12
-5 16 -19 16 -57 0 -38 4 -50 15 -50 11 0 15 13 15 54 0 64 -11 76 -68 73
l-42 -1 0 -63z"/>
<path d="M4244 5456 c-14 -29 -15 -37 -3 -62 11 -23 22 -30 50 -32 24 -2 40 2
49 13 12 15 10 16 -21 10 -26 -5 -39 -2 -48 9 -16 19 -7 24 49 28 29 2 34 7
32 23 -6 32 -22 45 -58 45 -29 0 -37 -5 -50 -34z m80 -1 c4 -12 -3 -15 -31
-15 -30 0 -34 2 -23 15 7 8 20 15 30 15 10 0 20 -7 24 -15z"/>
<path d="M4413 5478 c2 -7 13 -39 23 -72 17 -55 17 -59 1 -71 -22 -16 -22 -25
3 -25 23 0 29 10 64 108 20 56 22 72 12 72 -8 0 -20 -17 -26 -37 -18 -57 -26
-59 -40 -9 -8 28 -18 46 -27 46 -8 0 -13 -6 -10 -12z"/>
<path d="M4982 5477 c-40 -48 -15 -117 42 -117 37 0 51 12 61 53 11 41 -17 77
-59 77 -18 0 -38 -6 -44 -13z m71 -28 c17 -27 0 -69 -27 -69 -24 0 -36 17 -36
49 0 38 43 52 63 20z"/>
<path d="M5150 5444 c0 -69 12 -84 65 -82 l45 2 0 63 c0 35 -4 63 -10 63 -5 0
-10 -20 -10 -44 0 -46 -19 -72 -45 -62 -11 4 -15 20 -15 56 0 38 -4 50 -15 50
-11 0 -15 -12 -15 -46z"/>
<path d="M5332 5427 c4 -74 28 -94 28 -23 0 35 5 49 20 58 29 19 25 26 -15 26
l-36 0 3 -61z"/>
<path d="M5740 5424 c0 -50 3 -64 15 -64 11 0 15 12 15 51 0 42 3 52 20 56 32
8 23 21 -15 21 l-35 0 0 -64z"/>
<path d="M5876 5468 c-34 -48 -7 -108 48 -108 19 0 39 6 45 13 14 18 2 30 -15
16 -19 -15 -58 -7 -62 14 -3 14 4 17 42 17 49 0 57 11 36 51 -15 28 -74 26
-94 -3z m74 -13 c11 -13 7 -15 -23 -15 -28 0 -35 3 -31 15 4 8 14 15 24 15 10
0 23 -7 30 -15z"/>
<path d="M6062 5477 c-40 -48 -15 -117 42 -117 18 0 39 7 46 14 10 13 5 15
-31 13 -34 -2 -44 2 -47 16 -3 14 4 17 42 17 49 0 57 11 36 51 -12 22 -71 27
-88 6z m68 -22 c11 -13 7 -15 -24 -15 -35 0 -49 13 -23 23 22 9 34 7 47 -8z"/>
<path d="M6426 5468 c-45 -64 17 -134 85 -98 14 8 19 21 19 55 0 34 -5 47 -19
55 -32 17 -69 12 -85 -12z m74 -14 c21 -24 1 -69 -30 -69 -20 0 -26 6 -28 28
-6 48 31 74 58 41z"/>
<path d="M6600 5422 c0 -78 22 -82 30 -6 4 41 8 49 25 49 17 0 20 -8 23 -52 4
-61 22 -72 22 -14 0 52 8 71 31 71 15 0 18 -9 21 -52 4 -73 28 -78 28 -5 0 31
-5 59 -12 65 -7 5 -48 10 -90 9 l-78 -1 0 -64z"/>
<path d="M6855 5381 c-7 -12 12 -24 25 -16 11 7 4 25 -10 25 -5 0 -11 -4 -15
-9z"/>
<path d="M4588 5350 c-3 -19 -1 -29 6 -27 14 4 21 57 8 57 -5 0 -12 -14 -14
-30z"/>
</g>
</svg>
